<?xml version="1.0" encoding="UTF-8" standalone="no"?>
<!DOCTYPE svg PUBLIC "-//W3C//DTD SVG 1.1//EN"
 "http://www.w3.org/Graphics/SVG/1.1/DTD/svg11.dtd">
<!-- Generated by graphviz version 2.47.0 (20210316.0004)
 -->
<!-- Title: dependencies Pages: 1 -->
<svg width="699pt" height="211pt"
 viewBox="0.00 0.00 699.00 211.00" xmlns="http://www.w3.org/2000/svg" xmlns:xlink="http://www.w3.org/1999/xlink">
<g id="graph0" class="graph" transform="scale(1 1) rotate(0) translate(4 207)">
<title>dependencies</title>
<polygon fill="white" stroke="transparent" points="-4,4 -4,-207 695,-207 695,4 -4,4"/>
<text text-anchor="start" x="324.51" y="-42.4" font-family="Times-12" font-weight="bold" font-size="14.00">Legend</text>
<polygon fill="#ffffb3" stroke="transparent" points="111.5,-10 111.5,-30 131.5,-30 131.5,-10 111.5,-10"/>
<text text-anchor="start" x="135.13" y="-15.4" font-family="Times-12" font-size="14.00"> &#160;Declarations</text>
<polygon fill="#8dd3c7" stroke="transparent" points="224.5,-10 224.5,-30 244.5,-30 244.5,-10 224.5,-10"/>
<text text-anchor="start" x="248.23" y="-15.4" font-family="Times-12" font-size="14.00"> &#160;Module</text>
<polygon fill="#80b1d3" stroke="transparent" points="310.5,-10 310.5,-30 330.5,-30 330.5,-10 310.5,-10"/>
<text text-anchor="start" x="334.28" y="-15.4" font-family="Times-12" font-size="14.00"> &#160;Bootstrap</text>
<polygon fill="#fdb462" stroke="transparent" points="407.5,-10 407.5,-30 427.5,-30 427.5,-10 407.5,-10"/>
<text text-anchor="start" x="431.17" y="-15.4" font-family="Times-12" font-size="14.00"> &#160;Providers</text>
<polygon fill="#fb8072" stroke="transparent" points="503.5,-10 503.5,-30 523.5,-30 523.5,-10 503.5,-10"/>
<text text-anchor="start" x="527.23" y="-15.4" font-family="Times-12" font-size="14.00"> &#160;Exports</text>
<g id="clust1" class="cluster">
<title>cluster_TestProgramModule</title>
<polygon fill="none" stroke="black" stroke-dasharray="1,5" points="8,-70 8,-195 683,-195 683,-70 8,-70"/>
</g>
<g id="clust3" class="cluster">
<title>cluster_TestProgramModule_imports</title>
<polygon fill="none" stroke="black" points="444,-78 444,-130 675,-130 675,-78 444,-78"/>
</g>
<g id="clust6" class="cluster">
<title>cluster_TestProgramModule_providers</title>
<polygon fill="none" stroke="black" points="16,-78 16,-130 436,-130 436,-78 16,-78"/>
</g>
<!-- DatabaseModule -->
<g id="node1" class="node">
<title>DatabaseModule</title>
<polygon fill="#8dd3c7" stroke="black" points="667.35,-122 664.35,-126 643.35,-126 640.35,-122 556.65,-122 556.65,-86 667.35,-86 667.35,-122"/>
<text text-anchor="middle" x="612" y="-99.8" font-family="Times,serif" font-size="14.00">DatabaseModule</text>
</g>
<!-- TestProgramModule -->
<g id="node3" class="node">
<title>TestProgramModule</title>
<polygon fill="#8dd3c7" stroke="black" points="475.86,-187 472.86,-191 451.86,-191 448.86,-187 344.14,-187 344.14,-151 475.86,-151 475.86,-187"/>
<text text-anchor="middle" x="410" y="-164.8" font-family="Times,serif" font-size="14.00">TestProgramModule</text>
</g>
<!-- DatabaseModule&#45;&gt;TestProgramModule -->
<g id="edge1" class="edge">
<title>DatabaseModule&#45;&gt;TestProgramModule</title>
<path fill="none" stroke="black" d="M612,-122.11C612,-141.34 612,-169 612,-169 612,-169 485.86,-169 485.86,-169"/>
<polygon fill="black" stroke="black" points="485.86,-165.5 475.86,-169 485.86,-172.5 485.86,-165.5"/>
</g>
<!-- RmqModule -->
<g id="node2" class="node">
<title>RmqModule</title>
<polygon fill="#8dd3c7" stroke="black" points="538.28,-122 535.28,-126 514.28,-126 511.28,-122 451.72,-122 451.72,-86 538.28,-86 538.28,-122"/>
<text text-anchor="middle" x="495" y="-99.8" font-family="Times,serif" font-size="14.00">RmqModule</text>
</g>
<!-- RmqModule&#45;&gt;TestProgramModule -->
<g id="edge2" class="edge">
<title>RmqModule&#45;&gt;TestProgramModule</title>
<path fill="none" stroke="black" d="M463.77,-122.11C463.77,-122.11 463.77,-140.99 463.77,-140.99"/>
<polygon fill="black" stroke="black" points="460.27,-140.99 463.77,-150.99 467.27,-140.99 460.27,-140.99"/>
</g>
<!-- TestProgramRepository -->
<g id="node4" class="node">
<title>TestProgramRepository</title>
<ellipse fill="#fdb462" stroke="black" cx="325" cy="-104" rx="103.09" ry="18"/>
<text text-anchor="middle" x="325" y="-99.8" font-family="Times,serif" font-size="14.00">TestProgramRepository</text>
</g>
<!-- TestProgramRepository&#45;&gt;TestProgramModule -->
<g id="edge3" class="edge">
<title>TestProgramRepository&#45;&gt;TestProgramModule</title>
<path fill="none" stroke="black" d="M386.18,-118.75C386.18,-118.75 386.18,-140.59 386.18,-140.59"/>
<polygon fill="black" stroke="black" points="382.68,-140.59 386.18,-150.59 389.68,-140.59 382.68,-140.59"/>
</g>
<!-- TestProgramService -->
<g id="node5" class="node">
<title>TestProgramService</title>
<ellipse fill="#fdb462" stroke="black" cx="114" cy="-104" rx="89.74" ry="18"/>
<text text-anchor="middle" x="114" y="-99.8" font-family="Times,serif" font-size="14.00">TestProgramService</text>
</g>
<!-- TestProgramService&#45;&gt;TestProgramModule -->
<g id="edge4" class="edge">
<title>TestProgramService&#45;&gt;TestProgramModule</title>
<path fill="none" stroke="black" d="M114,-122.11C114,-141.34 114,-169 114,-169 114,-169 333.94,-169 333.94,-169"/>
<polygon fill="black" stroke="black" points="333.94,-172.5 343.94,-169 333.94,-165.5 333.94,-172.5"/>
</g>
</g>
</svg>
