<?xml version="1.0" encoding="UTF-8" standalone="no"?>
<!DOCTYPE svg PUBLIC "-//W3C//DTD SVG 1.1//EN"
 "http://www.w3.org/Graphics/SVG/1.1/DTD/svg11.dtd">
<!-- Generated by graphviz version 2.47.0 (20210316.0004)
 -->
<!-- Title: dependencies Pages: 1 -->
<svg width="504pt" height="211pt"
 viewBox="0.00 0.00 504.00 211.00" xmlns="http://www.w3.org/2000/svg" xmlns:xlink="http://www.w3.org/1999/xlink">
<g id="graph0" class="graph" transform="scale(1 1) rotate(0) translate(4 207)">
<title>dependencies</title>
<polygon fill="white" stroke="transparent" points="-4,4 -4,-207 500,-207 500,4 -4,4"/>
<text text-anchor="start" x="227.01" y="-42.4" font-family="Times-12" font-weight="bold" font-size="14.00">Legend</text>
<polygon fill="#ffffb3" stroke="transparent" points="14,-10 14,-30 34,-30 34,-10 14,-10"/>
<text text-anchor="start" x="37.63" y="-15.4" font-family="Times-12" font-size="14.00"> &#160;Declarations</text>
<polygon fill="#8dd3c7" stroke="transparent" points="127,-10 127,-30 147,-30 147,-10 127,-10"/>
<text text-anchor="start" x="150.73" y="-15.4" font-family="Times-12" font-size="14.00"> &#160;Module</text>
<polygon fill="#80b1d3" stroke="transparent" points="213,-10 213,-30 233,-30 233,-10 213,-10"/>
<text text-anchor="start" x="236.78" y="-15.4" font-family="Times-12" font-size="14.00"> &#160;Bootstrap</text>
<polygon fill="#fdb462" stroke="transparent" points="310,-10 310,-30 330,-30 330,-10 310,-10"/>
<text text-anchor="start" x="333.67" y="-15.4" font-family="Times-12" font-size="14.00"> &#160;Providers</text>
<polygon fill="#fb8072" stroke="transparent" points="406,-10 406,-30 426,-30 426,-10 406,-10"/>
<text text-anchor="start" x="429.73" y="-15.4" font-family="Times-12" font-size="14.00"> &#160;Exports</text>
<g id="clust1" class="cluster">
<title>cluster_TeacherModule</title>
<polygon fill="none" stroke="black" stroke-dasharray="1,5" points="12,-70 12,-195 484,-195 484,-70 12,-70"/>
</g>
<g id="clust3" class="cluster">
<title>cluster_TeacherModule_imports</title>
<polygon fill="none" stroke="black" points="374,-78 374,-130 476,-130 476,-78 374,-78"/>
</g>
<g id="clust6" class="cluster">
<title>cluster_TeacherModule_providers</title>
<polygon fill="none" stroke="black" points="20,-78 20,-130 366,-130 366,-78 20,-78"/>
</g>
<!-- RmqModule -->
<g id="node1" class="node">
<title>RmqModule</title>
<polygon fill="#8dd3c7" stroke="black" points="468.28,-122 465.28,-126 444.28,-126 441.28,-122 381.72,-122 381.72,-86 468.28,-86 468.28,-122"/>
<text text-anchor="middle" x="425" y="-99.8" font-family="Times,serif" font-size="14.00">RmqModule</text>
</g>
<!-- TeacherModule -->
<g id="node2" class="node">
<title>TeacherModule</title>
<polygon fill="#8dd3c7" stroke="black" points="325.12,-187 322.12,-191 301.12,-191 298.12,-187 220.88,-187 220.88,-151 325.12,-151 325.12,-187"/>
<text text-anchor="middle" x="273" y="-164.8" font-family="Times,serif" font-size="14.00">TeacherModule</text>
</g>
<!-- RmqModule&#45;&gt;TeacherModule -->
<g id="edge1" class="edge">
<title>RmqModule&#45;&gt;TeacherModule</title>
<path fill="none" stroke="black" d="M425,-122.11C425,-141.34 425,-169 425,-169 425,-169 335.31,-169 335.31,-169"/>
<polygon fill="black" stroke="black" points="335.31,-165.5 325.31,-169 335.31,-172.5 335.31,-165.5"/>
</g>
<!-- TeacherRepository -->
<g id="node3" class="node">
<title>TeacherRepository</title>
<ellipse fill="#fdb462" stroke="black" cx="273" cy="-104" rx="84.51" ry="18"/>
<text text-anchor="middle" x="273" y="-99.8" font-family="Times,serif" font-size="14.00">TeacherRepository</text>
</g>
<!-- TeacherRepository&#45;&gt;TeacherModule -->
<g id="edge2" class="edge">
<title>TeacherRepository&#45;&gt;TeacherModule</title>
<path fill="none" stroke="black" d="M273,-122.11C273,-122.11 273,-140.99 273,-140.99"/>
<polygon fill="black" stroke="black" points="269.5,-140.99 273,-150.99 276.5,-140.99 269.5,-140.99"/>
</g>
<!-- TeacherService -->
<g id="node4" class="node">
<title>TeacherService</title>
<ellipse fill="#fdb462" stroke="black" cx="99" cy="-104" rx="71.16" ry="18"/>
<text text-anchor="middle" x="99" y="-99.8" font-family="Times,serif" font-size="14.00">TeacherService</text>
</g>
<!-- TeacherService&#45;&gt;TeacherModule -->
<g id="edge3" class="edge">
<title>TeacherService&#45;&gt;TeacherModule</title>
<path fill="none" stroke="black" d="M99,-122.11C99,-141.34 99,-169 99,-169 99,-169 210.79,-169 210.79,-169"/>
<polygon fill="black" stroke="black" points="210.79,-172.5 220.79,-169 210.79,-165.5 210.79,-172.5"/>
</g>
</g>
</svg>
