<?xml version="1.0" encoding="UTF-8" standalone="no"?>
<!DOCTYPE svg PUBLIC "-//W3C//DTD SVG 1.1//EN"
 "http://www.w3.org/Graphics/SVG/1.1/DTD/svg11.dtd">
<!-- Generated by graphviz version 2.47.0 (20210316.0004)
 -->
<!-- Title: dependencies Pages: 1 -->
<svg width="785pt" height="211pt"
 viewBox="0.00 0.00 785.00 211.00" xmlns="http://www.w3.org/2000/svg" xmlns:xlink="http://www.w3.org/1999/xlink">
<g id="graph0" class="graph" transform="scale(1 1) rotate(0) translate(4 207)">
<title>dependencies</title>
<polygon fill="white" stroke="transparent" points="-4,4 -4,-207 781,-207 781,4 -4,4"/>
<text text-anchor="start" x="367.51" y="-42.4" font-family="Times-12" font-weight="bold" font-size="14.00">Legend</text>
<polygon fill="#ffffb3" stroke="transparent" points="154.5,-10 154.5,-30 174.5,-30 174.5,-10 154.5,-10"/>
<text text-anchor="start" x="178.13" y="-15.4" font-family="Times-12" font-size="14.00"> &#160;Declarations</text>
<polygon fill="#8dd3c7" stroke="transparent" points="267.5,-10 267.5,-30 287.5,-30 287.5,-10 267.5,-10"/>
<text text-anchor="start" x="291.23" y="-15.4" font-family="Times-12" font-size="14.00"> &#160;Module</text>
<polygon fill="#80b1d3" stroke="transparent" points="353.5,-10 353.5,-30 373.5,-30 373.5,-10 353.5,-10"/>
<text text-anchor="start" x="377.28" y="-15.4" font-family="Times-12" font-size="14.00"> &#160;Bootstrap</text>
<polygon fill="#fdb462" stroke="transparent" points="450.5,-10 450.5,-30 470.5,-30 470.5,-10 450.5,-10"/>
<text text-anchor="start" x="474.17" y="-15.4" font-family="Times-12" font-size="14.00"> &#160;Providers</text>
<polygon fill="#fb8072" stroke="transparent" points="546.5,-10 546.5,-30 566.5,-30 566.5,-10 546.5,-10"/>
<text text-anchor="start" x="570.23" y="-15.4" font-family="Times-12" font-size="14.00"> &#160;Exports</text>
<g id="clust1" class="cluster">
<title>cluster_ClassManagementModule</title>
<polygon fill="none" stroke="black" stroke-dasharray="1,5" points="8,-70 8,-195 769,-195 769,-70 8,-70"/>
</g>
<g id="clust3" class="cluster">
<title>cluster_ClassManagementModule_imports</title>
<polygon fill="none" stroke="black" points="530,-78 530,-130 761,-130 761,-78 530,-78"/>
</g>
<g id="clust6" class="cluster">
<title>cluster_ClassManagementModule_providers</title>
<polygon fill="none" stroke="black" points="16,-78 16,-130 522,-130 522,-78 16,-78"/>
</g>
<!-- DatabaseModule -->
<g id="node1" class="node">
<title>DatabaseModule</title>
<polygon fill="#8dd3c7" stroke="black" points="753.35,-122 750.35,-126 729.35,-126 726.35,-122 642.65,-122 642.65,-86 753.35,-86 753.35,-122"/>
<text text-anchor="middle" x="698" y="-99.8" font-family="Times,serif" font-size="14.00">DatabaseModule</text>
</g>
<!-- ClassManagementModule -->
<g id="node3" class="node">
<title>ClassManagementModule</title>
<polygon fill="#8dd3c7" stroke="black" points="566.47,-187 563.47,-191 542.47,-191 539.47,-187 403.53,-187 403.53,-151 566.47,-151 566.47,-187"/>
<text text-anchor="middle" x="485" y="-164.8" font-family="Times,serif" font-size="14.00">ClassManagementModule</text>
</g>
<!-- DatabaseModule&#45;&gt;ClassManagementModule -->
<g id="edge1" class="edge">
<title>DatabaseModule&#45;&gt;ClassManagementModule</title>
<path fill="none" stroke="black" d="M698,-122.11C698,-141.34 698,-169 698,-169 698,-169 576.74,-169 576.74,-169"/>
<polygon fill="black" stroke="black" points="576.74,-165.5 566.74,-169 576.74,-172.5 576.74,-165.5"/>
</g>
<!-- RmqModule -->
<g id="node2" class="node">
<title>RmqModule</title>
<polygon fill="#8dd3c7" stroke="black" points="624.28,-122 621.28,-126 600.28,-126 597.28,-122 537.72,-122 537.72,-86 624.28,-86 624.28,-122"/>
<text text-anchor="middle" x="581" y="-99.8" font-family="Times,serif" font-size="14.00">RmqModule</text>
</g>
<!-- RmqModule&#45;&gt;ClassManagementModule -->
<g id="edge2" class="edge">
<title>RmqModule&#45;&gt;ClassManagementModule</title>
<path fill="none" stroke="black" d="M552.05,-122.11C552.05,-122.11 552.05,-140.99 552.05,-140.99"/>
<polygon fill="black" stroke="black" points="548.55,-140.99 552.05,-150.99 555.55,-140.99 548.55,-140.99"/>
</g>
<!-- ClassManagementRepository -->
<g id="node4" class="node">
<title>ClassManagementRepository</title>
<ellipse fill="#fdb462" stroke="black" cx="389" cy="-104" rx="125" ry="18"/>
<text text-anchor="middle" x="389" y="-99.8" font-family="Times,serif" font-size="14.00">ClassManagementRepository</text>
</g>
<!-- ClassManagementRepository&#45;&gt;ClassManagementModule -->
<g id="edge3" class="edge">
<title>ClassManagementRepository&#45;&gt;ClassManagementModule</title>
<path fill="none" stroke="black" d="M458.63,-119.08C458.63,-119.08 458.63,-140.76 458.63,-140.76"/>
<polygon fill="black" stroke="black" points="455.13,-140.76 458.63,-150.76 462.13,-140.76 455.13,-140.76"/>
</g>
<!-- ClassManagementService -->
<g id="node5" class="node">
<title>ClassManagementService</title>
<ellipse fill="#fdb462" stroke="black" cx="135" cy="-104" rx="111.15" ry="18"/>
<text text-anchor="middle" x="135" y="-99.8" font-family="Times,serif" font-size="14.00">ClassManagementService</text>
</g>
<!-- ClassManagementService&#45;&gt;ClassManagementModule -->
<g id="edge4" class="edge">
<title>ClassManagementService&#45;&gt;ClassManagementModule</title>
<path fill="none" stroke="black" d="M135,-122.11C135,-141.34 135,-169 135,-169 135,-169 393.38,-169 393.38,-169"/>
<polygon fill="black" stroke="black" points="393.38,-172.5 403.38,-169 393.38,-165.5 393.38,-172.5"/>
</g>
</g>
</svg>
