<?xml version="1.0" encoding="UTF-8" standalone="no"?>
<!DOCTYPE svg PUBLIC "-//W3C//DTD SVG 1.1//EN"
 "http://www.w3.org/Graphics/SVG/1.1/DTD/svg11.dtd">
<!-- Generated by graphviz version 2.47.0 (20210316.0004)
 -->
<!-- Title: dependencies Pages: 1 -->
<svg width="785pt" height="211pt"
 viewBox="0.00 0.00 785.00 211.00" xmlns="http://www.w3.org/2000/svg" xmlns:xlink="http://www.w3.org/1999/xlink">
<g id="graph0" class="graph" transform="scale(1 1) rotate(0) translate(4 207)">
<title>dependencies</title>
<polygon fill="white" stroke="transparent" points="-4,4 -4,-207 781,-207 781,4 -4,4"/>
<text text-anchor="start" x="367.51" y="-42.4" font-family="Times-12" font-weight="bold" font-size="14.00">Legend</text>
<polygon fill="#ffffb3" stroke="transparent" points="154.5,-10 154.5,-30 174.5,-30 174.5,-10 154.5,-10"/>
<text text-anchor="start" x="178.13" y="-15.4" font-family="Times-12" font-size="14.00"> &#160;Declarations</text>
<polygon fill="#8dd3c7" stroke="transparent" points="267.5,-10 267.5,-30 287.5,-30 287.5,-10 267.5,-10"/>
<text text-anchor="start" x="291.23" y="-15.4" font-family="Times-12" font-size="14.00"> &#160;Module</text>
<polygon fill="#80b1d3" stroke="transparent" points="353.5,-10 353.5,-30 373.5,-30 373.5,-10 353.5,-10"/>
<text text-anchor="start" x="377.28" y="-15.4" font-family="Times-12" font-size="14.00"> &#160;Bootstrap</text>
<polygon fill="#fdb462" stroke="transparent" points="450.5,-10 450.5,-30 470.5,-30 470.5,-10 450.5,-10"/>
<text text-anchor="start" x="474.17" y="-15.4" font-family="Times-12" font-size="14.00"> &#160;Providers</text>
<polygon fill="#fb8072" stroke="transparent" points="546.5,-10 546.5,-30 566.5,-30 566.5,-10 546.5,-10"/>
<text text-anchor="start" x="570.23" y="-15.4" font-family="Times-12" font-size="14.00"> &#160;Exports</text>
<g id="clust1" class="cluster">
<title>cluster_ClassManagementModule</title>
<polygon fill="none" stroke="black" stroke-dasharray="1,5" points="8,-70 8,-195 769,-195 769,-70 8,-70"/>
</g>
<g id="clust6" class="cluster">
<title>cluster_ClassManagementModule_providers</title>
<polygon fill="none" stroke="black" points="255,-78 255,-130 761,-130 761,-78 255,-78"/>
</g>
<g id="clust3" class="cluster">
<title>cluster_ClassManagementModule_imports</title>
<polygon fill="none" stroke="black" points="16,-78 16,-130 247,-130 247,-78 16,-78"/>
</g>
<!-- DatabaseModule -->
<g id="node1" class="node">
<title>DatabaseModule</title>
<polygon fill="#8dd3c7" stroke="black" points="239.35,-122 236.35,-126 215.35,-126 212.35,-122 128.65,-122 128.65,-86 239.35,-86 239.35,-122"/>
<text text-anchor="middle" x="184" y="-99.8" font-family="Times,serif" font-size="14.00">DatabaseModule</text>
</g>
<!-- ClassManagementModule -->
<g id="node3" class="node">
<title>ClassManagementModule</title>
<polygon fill="#8dd3c7" stroke="black" points="360.47,-187 357.47,-191 336.47,-191 333.47,-187 197.53,-187 197.53,-151 360.47,-151 360.47,-187"/>
<text text-anchor="middle" x="279" y="-164.8" font-family="Times,serif" font-size="14.00">ClassManagementModule</text>
</g>
<!-- DatabaseModule&#45;&gt;ClassManagementModule -->
<g id="edge1" class="edge">
<title>DatabaseModule&#45;&gt;ClassManagementModule</title>
<path fill="none" stroke="black" d="M218.47,-122.11C218.47,-122.11 218.47,-140.99 218.47,-140.99"/>
<polygon fill="black" stroke="black" points="214.97,-140.99 218.47,-150.99 221.97,-140.99 214.97,-140.99"/>
</g>
<!-- RmqModule -->
<g id="node2" class="node">
<title>RmqModule</title>
<polygon fill="#8dd3c7" stroke="black" points="110.28,-122 107.28,-126 86.28,-126 83.28,-122 23.72,-122 23.72,-86 110.28,-86 110.28,-122"/>
<text text-anchor="middle" x="67" y="-99.8" font-family="Times,serif" font-size="14.00">RmqModule</text>
</g>
<!-- RmqModule&#45;&gt;ClassManagementModule -->
<g id="edge2" class="edge">
<title>RmqModule&#45;&gt;ClassManagementModule</title>
<path fill="none" stroke="black" d="M67,-122.11C67,-141.34 67,-169 67,-169 67,-169 187.34,-169 187.34,-169"/>
<polygon fill="black" stroke="black" points="187.34,-172.5 197.34,-169 187.34,-165.5 187.34,-172.5"/>
</g>
<!-- ClassManagementRepository -->
<g id="node4" class="node">
<title>ClassManagementRepository</title>
<ellipse fill="#fdb462" stroke="black" cx="628" cy="-104" rx="125" ry="18"/>
<text text-anchor="middle" x="628" y="-99.8" font-family="Times,serif" font-size="14.00">ClassManagementRepository</text>
</g>
<!-- ClassManagementRepository&#45;&gt;ClassManagementModule -->
<g id="edge3" class="edge">
<title>ClassManagementRepository&#45;&gt;ClassManagementModule</title>
<path fill="none" stroke="black" d="M628,-122.11C628,-141.34 628,-169 628,-169 628,-169 370.82,-169 370.82,-169"/>
<polygon fill="black" stroke="black" points="370.83,-165.5 360.82,-169 370.82,-172.5 370.83,-165.5"/>
</g>
<!-- ClassManagementService -->
<g id="node5" class="node">
<title>ClassManagementService</title>
<ellipse fill="#fdb462" stroke="black" cx="374" cy="-104" rx="111.15" ry="18"/>
<text text-anchor="middle" x="374" y="-99.8" font-family="Times,serif" font-size="14.00">ClassManagementService</text>
</g>
<!-- ClassManagementService&#45;&gt;ClassManagementModule -->
<g id="edge4" class="edge">
<title>ClassManagementService&#45;&gt;ClassManagementModule</title>
<path fill="none" stroke="black" d="M311.58,-119.08C311.58,-119.08 311.58,-140.76 311.58,-140.76"/>
<polygon fill="black" stroke="black" points="308.08,-140.76 311.58,-150.76 315.08,-140.76 308.08,-140.76"/>
</g>
</g>
</svg>
