<?xml version="1.0" encoding="UTF-8" standalone="no"?>
<!DOCTYPE svg PUBLIC "-//W3C//DTD SVG 1.1//EN"
 "http://www.w3.org/Graphics/SVG/1.1/DTD/svg11.dtd">
<!-- Generated by graphviz version 2.47.0 (20210316.0004)
 -->
<!-- Title: dependencies Pages: 1 -->
<svg width="942pt" height="211pt"
 viewBox="0.00 0.00 942.00 211.00" xmlns="http://www.w3.org/2000/svg" xmlns:xlink="http://www.w3.org/1999/xlink">
<g id="graph0" class="graph" transform="scale(1 1) rotate(0) translate(4 207)">
<title>dependencies</title>
<polygon fill="white" stroke="transparent" points="-4,4 -4,-207 938,-207 938,4 -4,4"/>
<text text-anchor="start" x="446.01" y="-42.4" font-family="Times-12" font-weight="bold" font-size="14.00">Legend</text>
<polygon fill="#ffffb3" stroke="transparent" points="233,-10 233,-30 253,-30 253,-10 233,-10"/>
<text text-anchor="start" x="256.63" y="-15.4" font-family="Times-12" font-size="14.00"> &#160;Declarations</text>
<polygon fill="#8dd3c7" stroke="transparent" points="346,-10 346,-30 366,-30 366,-10 346,-10"/>
<text text-anchor="start" x="369.73" y="-15.4" font-family="Times-12" font-size="14.00"> &#160;Module</text>
<polygon fill="#80b1d3" stroke="transparent" points="432,-10 432,-30 452,-30 452,-10 432,-10"/>
<text text-anchor="start" x="455.78" y="-15.4" font-family="Times-12" font-size="14.00"> &#160;Bootstrap</text>
<polygon fill="#fdb462" stroke="transparent" points="529,-10 529,-30 549,-30 549,-10 529,-10"/>
<text text-anchor="start" x="552.67" y="-15.4" font-family="Times-12" font-size="14.00"> &#160;Providers</text>
<polygon fill="#fb8072" stroke="transparent" points="625,-10 625,-30 645,-30 645,-10 625,-10"/>
<text text-anchor="start" x="648.73" y="-15.4" font-family="Times-12" font-size="14.00"> &#160;Exports</text>
<g id="clust1" class="cluster">
<title>cluster_StudentManagementModule</title>
<polygon fill="none" stroke="black" stroke-dasharray="1,5" points="8,-70 8,-195 926,-195 926,-70 8,-70"/>
</g>
<g id="clust3" class="cluster">
<title>cluster_StudentManagementModule_imports</title>
<polygon fill="none" stroke="black" points="564,-78 564,-130 918,-130 918,-78 564,-78"/>
</g>
<g id="clust6" class="cluster">
<title>cluster_StudentManagementModule_providers</title>
<polygon fill="none" stroke="black" points="16,-78 16,-130 556,-130 556,-78 16,-78"/>
</g>
<!-- DatabaseModule -->
<g id="node1" class="node">
<title>DatabaseModule</title>
<polygon fill="#8dd3c7" stroke="black" points="910.35,-122 907.35,-126 886.35,-126 883.35,-122 799.65,-122 799.65,-86 910.35,-86 910.35,-122"/>
<text text-anchor="middle" x="855" y="-99.8" font-family="Times,serif" font-size="14.00">DatabaseModule</text>
</g>
<!-- StudentManagementModule -->
<g id="node4" class="node">
<title>StudentManagementModule</title>
<polygon fill="#8dd3c7" stroke="black" points="711.91,-187 708.91,-191 687.91,-191 684.91,-187 536.09,-187 536.09,-151 711.91,-151 711.91,-187"/>
<text text-anchor="middle" x="624" y="-164.8" font-family="Times,serif" font-size="14.00">StudentManagementModule</text>
</g>
<!-- DatabaseModule&#45;&gt;StudentManagementModule -->
<g id="edge1" class="edge">
<title>DatabaseModule&#45;&gt;StudentManagementModule</title>
<path fill="none" stroke="black" d="M855,-122.11C855,-141.34 855,-169 855,-169 855,-169 721.99,-169 721.99,-169"/>
<polygon fill="black" stroke="black" points="721.99,-165.5 711.99,-169 721.99,-172.5 721.99,-165.5"/>
</g>
<!-- RmqModule -->
<g id="node2" class="node">
<title>RmqModule</title>
<polygon fill="#8dd3c7" stroke="black" points="781.28,-122 778.28,-126 757.28,-126 754.28,-122 694.72,-122 694.72,-86 781.28,-86 781.28,-122"/>
<text text-anchor="middle" x="738" y="-99.8" font-family="Times,serif" font-size="14.00">RmqModule</text>
</g>
<!-- RmqModule&#45;&gt;StudentManagementModule -->
<g id="edge2" class="edge">
<title>RmqModule&#45;&gt;StudentManagementModule</title>
<path fill="none" stroke="black" d="M703.16,-122.11C703.16,-122.11 703.16,-140.99 703.16,-140.99"/>
<polygon fill="black" stroke="black" points="699.66,-140.99 703.16,-150.99 706.66,-140.99 699.66,-140.99"/>
</g>
<!-- TeacherModule -->
<g id="node3" class="node">
<title>TeacherModule</title>
<polygon fill="#8dd3c7" stroke="black" points="676.12,-122 673.12,-126 652.12,-126 649.12,-122 571.88,-122 571.88,-86 676.12,-86 676.12,-122"/>
<text text-anchor="middle" x="624" y="-99.8" font-family="Times,serif" font-size="14.00">TeacherModule</text>
</g>
<!-- TeacherModule&#45;&gt;StudentManagementModule -->
<g id="edge3" class="edge">
<title>TeacherModule&#45;&gt;StudentManagementModule</title>
<path fill="none" stroke="black" d="M624,-122.11C624,-122.11 624,-140.99 624,-140.99"/>
<polygon fill="black" stroke="black" points="620.5,-140.99 624,-150.99 627.5,-140.99 620.5,-140.99"/>
</g>
<!-- StudentManagementRepository -->
<g id="node5" class="node">
<title>StudentManagementRepository</title>
<ellipse fill="#fdb462" stroke="black" cx="415" cy="-104" rx="133.17" ry="18"/>
<text text-anchor="middle" x="415" y="-99.8" font-family="Times,serif" font-size="14.00">StudentManagementRepository</text>
</g>
<!-- StudentManagementRepository&#45;&gt;StudentManagementModule -->
<g id="edge4" class="edge">
<title>StudentManagementRepository&#45;&gt;StudentManagementModule</title>
<path fill="none" stroke="black" d="M542.31,-109.54C542.31,-109.54 542.31,-140.75 542.31,-140.75"/>
<polygon fill="black" stroke="black" points="538.81,-140.75 542.31,-150.75 545.81,-140.75 538.81,-140.75"/>
</g>
<!-- StudentManagementService -->
<g id="node6" class="node">
<title>StudentManagementService</title>
<ellipse fill="#fdb462" stroke="black" cx="144" cy="-104" rx="119.82" ry="18"/>
<text text-anchor="middle" x="144" y="-99.8" font-family="Times,serif" font-size="14.00">StudentManagementService</text>
</g>
<!-- StudentManagementService&#45;&gt;StudentManagementModule -->
<g id="edge5" class="edge">
<title>StudentManagementService&#45;&gt;StudentManagementModule</title>
<path fill="none" stroke="black" d="M144,-122.11C144,-141.34 144,-169 144,-169 144,-169 526.24,-169 526.24,-169"/>
<polygon fill="black" stroke="black" points="526.24,-172.5 536.24,-169 526.24,-165.5 526.24,-172.5"/>
</g>
</g>
</svg>
