<?xml version="1.0" encoding="UTF-8" standalone="no"?>
<!DOCTYPE svg PUBLIC "-//W3C//DTD SVG 1.1//EN"
 "http://www.w3.org/Graphics/SVG/1.1/DTD/svg11.dtd">
<!-- Generated by graphviz version 2.47.0 (20210316.0004)
 -->
<!-- Title: dependencies Pages: 1 -->
<svg width="952pt" height="211pt"
 viewBox="0.00 0.00 952.00 211.00" xmlns="http://www.w3.org/2000/svg" xmlns:xlink="http://www.w3.org/1999/xlink">
<g id="graph0" class="graph" transform="scale(1 1) rotate(0) translate(4 207)">
<title>dependencies</title>
<polygon fill="white" stroke="transparent" points="-4,4 -4,-207 948,-207 948,4 -4,4"/>
<text text-anchor="start" x="451.01" y="-42.4" font-family="Times-12" font-weight="bold" font-size="14.00">Legend</text>
<polygon fill="#ffffb3" stroke="transparent" points="238,-10 238,-30 258,-30 258,-10 238,-10"/>
<text text-anchor="start" x="261.63" y="-15.4" font-family="Times-12" font-size="14.00"> &#160;Declarations</text>
<polygon fill="#8dd3c7" stroke="transparent" points="351,-10 351,-30 371,-30 371,-10 351,-10"/>
<text text-anchor="start" x="374.73" y="-15.4" font-family="Times-12" font-size="14.00"> &#160;Module</text>
<polygon fill="#80b1d3" stroke="transparent" points="437,-10 437,-30 457,-30 457,-10 437,-10"/>
<text text-anchor="start" x="460.78" y="-15.4" font-family="Times-12" font-size="14.00"> &#160;Bootstrap</text>
<polygon fill="#fdb462" stroke="transparent" points="534,-10 534,-30 554,-30 554,-10 534,-10"/>
<text text-anchor="start" x="557.67" y="-15.4" font-family="Times-12" font-size="14.00"> &#160;Providers</text>
<polygon fill="#fb8072" stroke="transparent" points="630,-10 630,-30 650,-30 650,-10 630,-10"/>
<text text-anchor="start" x="653.73" y="-15.4" font-family="Times-12" font-size="14.00"> &#160;Exports</text>
<g id="clust1" class="cluster">
<title>cluster_StudentManagementModule</title>
<polygon fill="none" stroke="black" stroke-dasharray="1,5" points="8,-70 8,-195 936,-195 936,-70 8,-70"/>
</g>
<g id="clust3" class="cluster">
<title>cluster_StudentManagementModule_imports</title>
<polygon fill="none" stroke="black" points="280,-78 280,-130 928,-130 928,-78 280,-78"/>
</g>
<g id="clust6" class="cluster">
<title>cluster_StudentManagementModule_providers</title>
<polygon fill="none" stroke="black" points="16,-78 16,-130 272,-130 272,-78 16,-78"/>
</g>
<!-- DatabaseModule -->
<g id="node1" class="node">
<title>DatabaseModule</title>
<polygon fill="#8dd3c7" stroke="black" points="920.35,-122 917.35,-126 896.35,-126 893.35,-122 809.65,-122 809.65,-86 920.35,-86 920.35,-122"/>
<text text-anchor="middle" x="865" y="-99.8" font-family="Times,serif" font-size="14.00">DatabaseModule</text>
</g>
<!-- StudentManagementModule -->
<g id="node6" class="node">
<title>StudentManagementModule</title>
<polygon fill="#8dd3c7" stroke="black" points="609.91,-187 606.91,-191 585.91,-191 582.91,-187 434.09,-187 434.09,-151 609.91,-151 609.91,-187"/>
<text text-anchor="middle" x="522" y="-164.8" font-family="Times,serif" font-size="14.00">StudentManagementModule</text>
</g>
<!-- DatabaseModule&#45;&gt;StudentManagementModule -->
<g id="edge1" class="edge">
<title>DatabaseModule&#45;&gt;StudentManagementModule</title>
<path fill="none" stroke="black" d="M865,-122.28C865,-143.32 865,-175 865,-175 865,-175 619.89,-175 619.89,-175"/>
<polygon fill="black" stroke="black" points="619.89,-171.5 609.89,-175 619.89,-178.5 619.89,-171.5"/>
</g>
<!-- MeetingModule -->
<g id="node2" class="node">
<title>MeetingModule</title>
<polygon fill="#8dd3c7" stroke="black" points="791.2,-122 788.2,-126 767.2,-126 764.2,-122 684.8,-122 684.8,-86 791.2,-86 791.2,-122"/>
<text text-anchor="middle" x="738" y="-99.8" font-family="Times,serif" font-size="14.00">MeetingModule</text>
</g>
<!-- MeetingModule&#45;&gt;StudentManagementModule -->
<g id="edge2" class="edge">
<title>MeetingModule&#45;&gt;StudentManagementModule</title>
<path fill="none" stroke="black" d="M738,-122.02C738,-139.37 738,-163 738,-163 738,-163 619.86,-163 619.86,-163"/>
<polygon fill="black" stroke="black" points="619.86,-159.5 609.86,-163 619.86,-166.5 619.86,-159.5"/>
</g>
<!-- PotentialStudentModule -->
<g id="node3" class="node">
<title>PotentialStudentModule</title>
<polygon fill="#8dd3c7" stroke="black" points="667.1,-122 664.1,-126 643.1,-126 640.1,-122 514.9,-122 514.9,-86 667.1,-86 667.1,-122"/>
<text text-anchor="middle" x="591" y="-99.8" font-family="Times,serif" font-size="14.00">PotentialStudentModule</text>
</g>
<!-- PotentialStudentModule&#45;&gt;StudentManagementModule -->
<g id="edge3" class="edge">
<title>PotentialStudentModule&#45;&gt;StudentManagementModule</title>
<path fill="none" stroke="black" d="M562.33,-122.11C562.33,-122.11 562.33,-140.99 562.33,-140.99"/>
<polygon fill="black" stroke="black" points="558.83,-140.99 562.33,-150.99 565.83,-140.99 558.83,-140.99"/>
</g>
<!-- RmqModule -->
<g id="node4" class="node">
<title>RmqModule</title>
<polygon fill="#8dd3c7" stroke="black" points="497.28,-122 494.28,-126 473.28,-126 470.28,-122 410.72,-122 410.72,-86 497.28,-86 497.28,-122"/>
<text text-anchor="middle" x="454" y="-99.8" font-family="Times,serif" font-size="14.00">RmqModule</text>
</g>
<!-- RmqModule&#45;&gt;StudentManagementModule -->
<g id="edge4" class="edge">
<title>RmqModule&#45;&gt;StudentManagementModule</title>
<path fill="none" stroke="black" d="M465.84,-122.11C465.84,-122.11 465.84,-140.99 465.84,-140.99"/>
<polygon fill="black" stroke="black" points="462.34,-140.99 465.84,-150.99 469.34,-140.99 462.34,-140.99"/>
</g>
<!-- TeacherModule -->
<g id="node5" class="node">
<title>TeacherModule</title>
<polygon fill="#8dd3c7" stroke="black" points="392.12,-122 389.12,-126 368.12,-126 365.12,-122 287.88,-122 287.88,-86 392.12,-86 392.12,-122"/>
<text text-anchor="middle" x="340" y="-99.8" font-family="Times,serif" font-size="14.00">TeacherModule</text>
</g>
<!-- TeacherModule&#45;&gt;StudentManagementModule -->
<g id="edge5" class="edge">
<title>TeacherModule&#45;&gt;StudentManagementModule</title>
<path fill="none" stroke="black" d="M340,-122.02C340,-139.37 340,-163 340,-163 340,-163 424.2,-163 424.2,-163"/>
<polygon fill="black" stroke="black" points="424.2,-166.5 434.2,-163 424.2,-159.5 424.2,-166.5"/>
</g>
<!-- StudentManagementService -->
<g id="node7" class="node">
<title>StudentManagementService</title>
<ellipse fill="#fdb462" stroke="black" cx="144" cy="-104" rx="119.82" ry="18"/>
<text text-anchor="middle" x="144" y="-99.8" font-family="Times,serif" font-size="14.00">StudentManagementService</text>
</g>
<!-- StudentManagementService&#45;&gt;StudentManagementModule -->
<g id="edge6" class="edge">
<title>StudentManagementService&#45;&gt;StudentManagementModule</title>
<path fill="none" stroke="black" d="M144,-122.28C144,-143.32 144,-175 144,-175 144,-175 423.85,-175 423.85,-175"/>
<polygon fill="black" stroke="black" points="423.85,-178.5 433.85,-175 423.85,-171.5 423.85,-178.5"/>
</g>
</g>
</svg>
