<?xml version="1.0" encoding="UTF-8" standalone="no"?>
<!DOCTYPE svg PUBLIC "-//W3C//DTD SVG 1.1//EN"
 "http://www.w3.org/Graphics/SVG/1.1/DTD/svg11.dtd">
<!-- Generated by graphviz version 2.47.0 (20210316.0004)
 -->
<!-- Title: dependencies Pages: 1 -->
<svg width="821pt" height="211pt"
 viewBox="0.00 0.00 821.00 211.00" xmlns="http://www.w3.org/2000/svg" xmlns:xlink="http://www.w3.org/1999/xlink">
<g id="graph0" class="graph" transform="scale(1 1) rotate(0) translate(4 207)">
<title>dependencies</title>
<polygon fill="white" stroke="transparent" points="-4,4 -4,-207 817,-207 817,4 -4,4"/>
<text text-anchor="start" x="385.51" y="-42.4" font-family="Times-12" font-weight="bold" font-size="14.00">Legend</text>
<polygon fill="#ffffb3" stroke="transparent" points="172.5,-10 172.5,-30 192.5,-30 192.5,-10 172.5,-10"/>
<text text-anchor="start" x="196.13" y="-15.4" font-family="Times-12" font-size="14.00"> &#160;Declarations</text>
<polygon fill="#8dd3c7" stroke="transparent" points="285.5,-10 285.5,-30 305.5,-30 305.5,-10 285.5,-10"/>
<text text-anchor="start" x="309.23" y="-15.4" font-family="Times-12" font-size="14.00"> &#160;Module</text>
<polygon fill="#80b1d3" stroke="transparent" points="371.5,-10 371.5,-30 391.5,-30 391.5,-10 371.5,-10"/>
<text text-anchor="start" x="395.28" y="-15.4" font-family="Times-12" font-size="14.00"> &#160;Bootstrap</text>
<polygon fill="#fdb462" stroke="transparent" points="468.5,-10 468.5,-30 488.5,-30 488.5,-10 468.5,-10"/>
<text text-anchor="start" x="492.17" y="-15.4" font-family="Times-12" font-size="14.00"> &#160;Providers</text>
<polygon fill="#fb8072" stroke="transparent" points="564.5,-10 564.5,-30 584.5,-30 584.5,-10 564.5,-10"/>
<text text-anchor="start" x="588.23" y="-15.4" font-family="Times-12" font-size="14.00"> &#160;Exports</text>
<g id="clust1" class="cluster">
<title>cluster_ModuleManagementModule</title>
<polygon fill="none" stroke="black" stroke-dasharray="1,5" points="8,-70 8,-195 805,-195 805,-70 8,-70"/>
</g>
<g id="clust6" class="cluster">
<title>cluster_ModuleManagementModule_providers</title>
<polygon fill="none" stroke="black" points="255,-78 255,-130 797,-130 797,-78 255,-78"/>
</g>
<g id="clust3" class="cluster">
<title>cluster_ModuleManagementModule_imports</title>
<polygon fill="none" stroke="black" points="16,-78 16,-130 247,-130 247,-78 16,-78"/>
</g>
<!-- DatabaseModule -->
<g id="node1" class="node">
<title>DatabaseModule</title>
<polygon fill="#8dd3c7" stroke="black" points="239.35,-122 236.35,-126 215.35,-126 212.35,-122 128.65,-122 128.65,-86 239.35,-86 239.35,-122"/>
<text text-anchor="middle" x="184" y="-99.8" font-family="Times,serif" font-size="14.00">DatabaseModule</text>
</g>
<!-- ModuleManagementModule -->
<g id="node3" class="node">
<title>ModuleManagementModule</title>
<polygon fill="#8dd3c7" stroke="black" points="371.18,-187 368.18,-191 347.18,-191 344.18,-187 194.82,-187 194.82,-151 371.18,-151 371.18,-187"/>
<text text-anchor="middle" x="283" y="-164.8" font-family="Times,serif" font-size="14.00">ModuleManagementModule</text>
</g>
<!-- DatabaseModule&#45;&gt;ModuleManagementModule -->
<g id="edge1" class="edge">
<title>DatabaseModule&#45;&gt;ModuleManagementModule</title>
<path fill="none" stroke="black" d="M217.17,-122.11C217.17,-122.11 217.17,-140.99 217.17,-140.99"/>
<polygon fill="black" stroke="black" points="213.67,-140.99 217.17,-150.99 220.67,-140.99 213.67,-140.99"/>
</g>
<!-- RmqModule -->
<g id="node2" class="node">
<title>RmqModule</title>
<polygon fill="#8dd3c7" stroke="black" points="110.28,-122 107.28,-126 86.28,-126 83.28,-122 23.72,-122 23.72,-86 110.28,-86 110.28,-122"/>
<text text-anchor="middle" x="67" y="-99.8" font-family="Times,serif" font-size="14.00">RmqModule</text>
</g>
<!-- RmqModule&#45;&gt;ModuleManagementModule -->
<g id="edge2" class="edge">
<title>RmqModule&#45;&gt;ModuleManagementModule</title>
<path fill="none" stroke="black" d="M67,-122.11C67,-141.34 67,-169 67,-169 67,-169 184.83,-169 184.83,-169"/>
<polygon fill="black" stroke="black" points="184.83,-172.5 194.83,-169 184.83,-165.5 184.83,-172.5"/>
</g>
<!-- ModuleManagementRepository -->
<g id="node4" class="node">
<title>ModuleManagementRepository</title>
<ellipse fill="#fdb462" stroke="black" cx="655" cy="-104" rx="133.73" ry="18"/>
<text text-anchor="middle" x="655" y="-99.8" font-family="Times,serif" font-size="14.00">ModuleManagementRepository</text>
</g>
<!-- ModuleManagementRepository&#45;&gt;ModuleManagementModule -->
<g id="edge3" class="edge">
<title>ModuleManagementRepository&#45;&gt;ModuleManagementModule</title>
<path fill="none" stroke="black" d="M655,-122.11C655,-141.34 655,-169 655,-169 655,-169 381.16,-169 381.16,-169"/>
<polygon fill="black" stroke="black" points="381.16,-165.5 371.16,-169 381.16,-172.5 381.16,-165.5"/>
</g>
<!-- ModuleManagementService -->
<g id="node5" class="node">
<title>ModuleManagementService</title>
<ellipse fill="#fdb462" stroke="black" cx="383" cy="-104" rx="120.39" ry="18"/>
<text text-anchor="middle" x="383" y="-99.8" font-family="Times,serif" font-size="14.00">ModuleManagementService</text>
</g>
<!-- ModuleManagementService&#45;&gt;ModuleManagementModule -->
<g id="edge4" class="edge">
<title>ModuleManagementService&#45;&gt;ModuleManagementModule</title>
<path fill="none" stroke="black" d="M316.82,-119.08C316.82,-119.08 316.82,-140.76 316.82,-140.76"/>
<polygon fill="black" stroke="black" points="313.32,-140.76 316.82,-150.76 320.32,-140.76 313.32,-140.76"/>
</g>
</g>
</svg>
