<?xml version="1.0" encoding="UTF-8" standalone="no"?>
<!DOCTYPE svg PUBLIC "-//W3C//DTD SVG 1.1//EN"
 "http://www.w3.org/Graphics/SVG/1.1/DTD/svg11.dtd">
<!-- Generated by graphviz version 2.47.0 (20210316.0004)
 -->
<!-- Title: dependencies Pages: 1 -->
<svg width="3203pt" height="287pt"
 viewBox="0.00 0.00 3203.00 287.00" xmlns="http://www.w3.org/2000/svg" xmlns:xlink="http://www.w3.org/1999/xlink">
<g id="graph0" class="graph" transform="scale(1 1) rotate(0) translate(4 283)">
<title>dependencies</title>
<polygon fill="white" stroke="transparent" points="-4,4 -4,-283 3199,-283 3199,4 -4,4"/>
<text text-anchor="start" x="1576.51" y="-42.4" font-family="Times-12" font-weight="bold" font-size="14.00">Legend</text>
<polygon fill="#ffffb3" stroke="transparent" points="1363.5,-10 1363.5,-30 1383.5,-30 1383.5,-10 1363.5,-10"/>
<text text-anchor="start" x="1387.13" y="-15.4" font-family="Times-12" font-size="14.00"> &#160;Declarations</text>
<polygon fill="#8dd3c7" stroke="transparent" points="1476.5,-10 1476.5,-30 1496.5,-30 1496.5,-10 1476.5,-10"/>
<text text-anchor="start" x="1500.23" y="-15.4" font-family="Times-12" font-size="14.00"> &#160;Module</text>
<polygon fill="#80b1d3" stroke="transparent" points="1562.5,-10 1562.5,-30 1582.5,-30 1582.5,-10 1562.5,-10"/>
<text text-anchor="start" x="1586.28" y="-15.4" font-family="Times-12" font-size="14.00"> &#160;Bootstrap</text>
<polygon fill="#fdb462" stroke="transparent" points="1659.5,-10 1659.5,-30 1679.5,-30 1679.5,-10 1659.5,-10"/>
<text text-anchor="start" x="1683.17" y="-15.4" font-family="Times-12" font-size="14.00"> &#160;Providers</text>
<polygon fill="#fb8072" stroke="transparent" points="1755.5,-10 1755.5,-30 1775.5,-30 1775.5,-10 1755.5,-10"/>
<text text-anchor="start" x="1779.23" y="-15.4" font-family="Times-12" font-size="14.00"> &#160;Exports</text>
<g id="clust1" class="cluster">
<title>cluster_ClassManagementModule</title>
<polygon fill="none" stroke="black" stroke-dasharray="1,5" points="344,-70 344,-206 1105,-206 1105,-70 344,-70"/>
</g>
<g id="clust3" class="cluster">
<title>cluster_ClassManagementModule_imports</title>
<polygon fill="none" stroke="black" points="866,-78 866,-130 1097,-130 1097,-78 866,-78"/>
</g>
<g id="clust6" class="cluster">
<title>cluster_ClassManagementModule_providers</title>
<polygon fill="none" stroke="black" points="352,-78 352,-130 858,-130 858,-78 352,-78"/>
</g>
<g id="clust13" class="cluster">
<title>cluster_MeetingModule</title>
<polygon fill="none" stroke="black" stroke-dasharray="1,5" points="2087,-70 2087,-206 2263,-206 2263,-70 2087,-70"/>
</g>
<g id="clust18" class="cluster">
<title>cluster_MeetingModule_providers</title>
<polygon fill="none" stroke="black" points="2095,-78 2095,-130 2255,-130 2255,-78 2095,-78"/>
</g>
<g id="clust19" class="cluster">
<title>cluster_ModuleManagementModule</title>
<polygon fill="none" stroke="black" stroke-dasharray="1,5" points="1113,-70 1113,-206 1671,-206 1671,-70 1113,-70"/>
</g>
<g id="clust24" class="cluster">
<title>cluster_ModuleManagementModule_providers</title>
<polygon fill="none" stroke="black" points="1121,-78 1121,-130 1663,-130 1663,-78 1121,-78"/>
</g>
<g id="clust25" class="cluster">
<title>cluster_PotentialStudentModule</title>
<polygon fill="none" stroke="black" stroke-dasharray="1,5" points="2271,-70 2271,-206 2511,-206 2511,-70 2271,-70"/>
</g>
<g id="clust30" class="cluster">
<title>cluster_PotentialStudentModule_providers</title>
<polygon fill="none" stroke="black" points="2279,-78 2279,-130 2503,-130 2503,-78 2279,-78"/>
</g>
<g id="clust31" class="cluster">
<title>cluster_RmqModule</title>
<polygon fill="none" stroke="black" stroke-dasharray="1,5" points="8,-146 8,-214 336,-214 336,-146 8,-146"/>
</g>
<g id="clust34" class="cluster">
<title>cluster_RmqModule_exports</title>
<polygon fill="none" stroke="black" points="196,-154 196,-206 328,-206 328,-154 196,-154"/>
</g>
<g id="clust36" class="cluster">
<title>cluster_RmqModule_providers</title>
<polygon fill="none" stroke="black" points="16,-154 16,-206 188,-206 188,-154 16,-154"/>
</g>
<g id="clust37" class="cluster">
<title>cluster_StudentManagementModule</title>
<polygon fill="none" stroke="black" stroke-dasharray="1,5" points="1679,-146 1679,-271 2079,-271 2079,-146 1679,-146"/>
</g>
<g id="clust39" class="cluster">
<title>cluster_StudentManagementModule_imports</title>
<polygon fill="none" stroke="black" points="1951,-154 1951,-206 2071,-206 2071,-154 1951,-154"/>
</g>
<g id="clust42" class="cluster">
<title>cluster_StudentManagementModule_providers</title>
<polygon fill="none" stroke="black" points="1687,-154 1687,-206 1943,-206 1943,-154 1687,-154"/>
</g>
<g id="clust43" class="cluster">
<title>cluster_StudyProgramModule</title>
<polygon fill="none" stroke="black" stroke-dasharray="1,5" points="2963,-70 2963,-206 3187,-206 3187,-70 2963,-70"/>
</g>
<g id="clust48" class="cluster">
<title>cluster_StudyProgramModule_providers</title>
<polygon fill="none" stroke="black" points="2971,-78 2971,-130 3179,-130 3179,-78 2971,-78"/>
</g>
<g id="clust49" class="cluster">
<title>cluster_TeacherModule</title>
<polygon fill="none" stroke="black" stroke-dasharray="1,5" points="1905,-70 1905,-138 2079,-138 2079,-70 1905,-70"/>
</g>
<g id="clust54" class="cluster">
<title>cluster_TeacherModule_providers</title>
<polygon fill="none" stroke="black" points="1913,-78 1913,-130 2071,-130 2071,-78 1913,-78"/>
</g>
<g id="clust55" class="cluster">
<title>cluster_TestProgramModule</title>
<polygon fill="none" stroke="black" stroke-dasharray="1,5" points="2519,-70 2519,-206 2955,-206 2955,-70 2519,-70"/>
</g>
<g id="clust60" class="cluster">
<title>cluster_TestProgramModule_providers</title>
<polygon fill="none" stroke="black" points="2527,-78 2527,-130 2947,-130 2947,-78 2527,-78"/>
</g>
<!-- DatabaseModule -->
<g id="node1" class="node">
<title>DatabaseModule</title>
<polygon fill="#8dd3c7" stroke="black" points="1089.35,-122 1086.35,-126 1065.35,-126 1062.35,-122 978.65,-122 978.65,-86 1089.35,-86 1089.35,-122"/>
<text text-anchor="middle" x="1034" y="-99.8" font-family="Times,serif" font-size="14.00">DatabaseModule</text>
</g>
<!-- ClassManagementModule -->
<g id="node3" class="node">
<title>ClassManagementModule</title>
<polygon fill="#8dd3c7" stroke="black" points="847.47,-198 844.47,-202 823.47,-202 820.47,-198 684.53,-198 684.53,-162 847.47,-162 847.47,-198"/>
<text text-anchor="middle" x="766" y="-175.8" font-family="Times,serif" font-size="14.00">ClassManagementModule</text>
</g>
<!-- DatabaseModule&#45;&gt;ClassManagementModule -->
<g id="edge1" class="edge">
<title>DatabaseModule&#45;&gt;ClassManagementModule</title>
<path fill="none" stroke="black" d="M1022.91,-122.03C1022.91,-147.51 1022.91,-191 1022.91,-191 1022.91,-191 857.64,-191 857.64,-191"/>
<polygon fill="black" stroke="black" points="857.64,-187.5 847.64,-191 857.64,-194.5 857.64,-187.5"/>
</g>
<!-- ModuleManagementModule -->
<g id="node8" class="node">
<title>ModuleManagementModule</title>
<polygon fill="#8dd3c7" stroke="black" points="1317.18,-198 1314.18,-202 1293.18,-202 1290.18,-198 1140.82,-198 1140.82,-162 1317.18,-162 1317.18,-198"/>
<text text-anchor="middle" x="1229" y="-175.8" font-family="Times,serif" font-size="14.00">ModuleManagementModule</text>
</g>
<!-- DatabaseModule&#45;&gt;ModuleManagementModule -->
<g id="edge7" class="edge">
<title>DatabaseModule&#45;&gt;ModuleManagementModule</title>
<path fill="none" stroke="black" d="M1067.26,-122.03C1067.26,-141.58 1067.26,-170 1067.26,-170 1067.26,-170 1130.56,-170 1130.56,-170"/>
<polygon fill="black" stroke="black" points="1130.56,-173.5 1140.56,-170 1130.56,-166.5 1130.56,-173.5"/>
</g>
<!-- StudentManagementModule -->
<g id="node16" class="node">
<title>StudentManagementModule</title>
<polygon fill="#8dd3c7" stroke="black" points="1986.91,-263 1983.91,-267 1962.91,-267 1959.91,-263 1811.09,-263 1811.09,-227 1986.91,-227 1986.91,-263"/>
<text text-anchor="middle" x="1899" y="-240.8" font-family="Times,serif" font-size="14.00">StudentManagementModule</text>
</g>
<!-- DatabaseModule&#45;&gt;StudentManagementModule -->
<g id="edge15" class="edge">
<title>DatabaseModule&#45;&gt;StudentManagementModule</title>
<path fill="none" stroke="black" d="M1045.09,-122.21C1045.09,-159.06 1045.09,-239 1045.09,-239 1045.09,-239 1801.23,-239 1801.23,-239"/>
<polygon fill="black" stroke="black" points="1801.23,-242.5 1811.23,-239 1801.23,-235.5 1801.23,-242.5"/>
</g>
<!-- TestProgramModule -->
<g id="node21" class="node">
<title>TestProgramModule</title>
<polygon fill="#8dd3c7" stroke="black" points="2674.86,-198 2671.86,-202 2650.86,-202 2647.86,-198 2543.14,-198 2543.14,-162 2674.86,-162 2674.86,-198"/>
<text text-anchor="middle" x="2609" y="-175.8" font-family="Times,serif" font-size="14.00">TestProgramModule</text>
</g>
<!-- DatabaseModule&#45;&gt;TestProgramModule -->
<g id="edge24" class="edge">
<title>DatabaseModule&#45;&gt;TestProgramModule</title>
<path fill="none" stroke="black" d="M1000.75,-122.12C1000.75,-124.97 1000.75,-127 1000.75,-127 1000.75,-127 2609,-127 2609,-127 2609,-127 2609,-151.76 2609,-151.76"/>
<polygon fill="black" stroke="black" points="2605.5,-151.76 2609,-161.76 2612.5,-151.76 2605.5,-151.76"/>
</g>
<!-- RmqModule -->
<g id="node2" class="node">
<title>RmqModule</title>
<polygon fill="#8dd3c7" stroke="black" points="960.28,-122 957.28,-126 936.28,-126 933.28,-122 873.72,-122 873.72,-86 960.28,-86 960.28,-122"/>
<text text-anchor="middle" x="917" y="-99.8" font-family="Times,serif" font-size="14.00">RmqModule</text>
</g>
<!-- RmqModule&#45;&gt;ClassManagementModule -->
<g id="edge2" class="edge">
<title>RmqModule&#45;&gt;ClassManagementModule</title>
<path fill="none" stroke="black" d="M934.36,-122.15C934.36,-145.76 934.36,-184 934.36,-184 934.36,-184 857.71,-184 857.71,-184"/>
<polygon fill="black" stroke="black" points="857.71,-180.5 847.71,-184 857.71,-187.5 857.71,-180.5"/>
</g>
<!-- MeetingModule -->
<g id="node6" class="node">
<title>MeetingModule</title>
<polygon fill="#8dd3c7" stroke="black" points="2201.2,-198 2198.2,-202 2177.2,-202 2174.2,-198 2094.8,-198 2094.8,-162 2201.2,-162 2201.2,-198"/>
<text text-anchor="middle" x="2148" y="-175.8" font-family="Times,serif" font-size="14.00">MeetingModule</text>
</g>
<!-- RmqModule&#45;&gt;MeetingModule -->
<g id="edge5" class="edge">
<title>RmqModule&#45;&gt;MeetingModule</title>
<path fill="none" stroke="black" d="M908.32,-122.11C908.32,-131.9 908.32,-142 908.32,-142 908.32,-142 2098.86,-142 2098.86,-142 2098.86,-142 2098.86,-151.89 2098.86,-151.89"/>
<polygon fill="black" stroke="black" points="2095.36,-151.89 2098.86,-161.89 2102.36,-151.89 2095.36,-151.89"/>
</g>
<!-- RmqModule&#45;&gt;ModuleManagementModule -->
<g id="edge8" class="edge">
<title>RmqModule&#45;&gt;ModuleManagementModule</title>
<path fill="none" stroke="black" d="M951.71,-122.04C951.71,-143.66 951.71,-177 951.71,-177 951.71,-177 1130.88,-177 1130.88,-177"/>
<polygon fill="black" stroke="black" points="1130.88,-180.5 1140.88,-177 1130.88,-173.5 1130.88,-180.5"/>
</g>
<!-- PotentialStudentModule -->
<g id="node11" class="node">
<title>PotentialStudentModule</title>
<polygon fill="#8dd3c7" stroke="black" points="2431.1,-198 2428.1,-202 2407.1,-202 2404.1,-198 2278.9,-198 2278.9,-162 2431.1,-162 2431.1,-198"/>
<text text-anchor="middle" x="2355" y="-175.8" font-family="Times,serif" font-size="14.00">PotentialStudentModule</text>
</g>
<!-- RmqModule&#45;&gt;PotentialStudentModule -->
<g id="edge11" class="edge">
<title>RmqModule&#45;&gt;PotentialStudentModule</title>
<path fill="none" stroke="black" d="M917,-122.04C917,-129.75 917,-137 917,-137 917,-137 2283.06,-137 2283.06,-137 2283.06,-137 2283.06,-151.51 2283.06,-151.51"/>
<polygon fill="black" stroke="black" points="2279.56,-151.51 2283.06,-161.51 2286.56,-151.51 2279.56,-151.51"/>
</g>
<!-- RabbitmqService  -->
<g id="node13" class="node">
<title>RabbitmqService </title>
<polygon fill="#fb8072" stroke="black" points="320.2,-198 203.8,-198 203.8,-162 320.2,-162 320.2,-198"/>
<text text-anchor="middle" x="262" y="-175.8" font-family="Times,serif" font-size="14.00">RabbitmqService </text>
</g>
<!-- RmqModule&#45;&gt;RabbitmqService  -->
<g id="edge13" class="edge">
<title>RmqModule&#45;&gt;RabbitmqService </title>
<path fill="none" stroke="black" stroke-dasharray="5,2" d="M890.97,-122.24C890.97,-137.57 890.97,-157 890.97,-157 890.97,-157 262,-157 262,-157 262,-157 262,-157.49 262,-157.49"/>
<polygon fill="black" stroke="black" points="258.5,-151.88 262,-161.88 265.5,-151.88 258.5,-151.88"/>
</g>
<!-- TeacherModule -->
<g id="node15" class="node">
<title>TeacherModule</title>
<polygon fill="#8dd3c7" stroke="black" points="2063.12,-198 2060.12,-202 2039.12,-202 2036.12,-198 1958.88,-198 1958.88,-162 2063.12,-162 2063.12,-198"/>
<text text-anchor="middle" x="2011" y="-175.8" font-family="Times,serif" font-size="14.00">TeacherModule</text>
</g>
<!-- RmqModule&#45;&gt;TeacherModule -->
<g id="edge22" class="edge">
<title>RmqModule&#45;&gt;TeacherModule</title>
<path fill="none" stroke="black" d="M899.64,-122.49C899.64,-134.14 899.64,-147 899.64,-147 899.64,-147 1993.49,-147 1993.49,-147 1993.49,-147 1993.49,-151.96 1993.49,-151.96"/>
<polygon fill="black" stroke="black" points="1989.99,-151.96 1993.49,-161.96 1996.99,-151.96 1989.99,-151.96"/>
</g>
<!-- RmqModule&#45;&gt;StudentManagementModule -->
<g id="edge18" class="edge">
<title>RmqModule&#45;&gt;StudentManagementModule</title>
<path fill="none" stroke="black" d="M943.03,-122.03C943.03,-161.28 943.03,-251 943.03,-251 943.03,-251 1801.2,-251 1801.2,-251"/>
<polygon fill="black" stroke="black" points="1801.2,-254.5 1811.2,-251 1801.2,-247.5 1801.2,-254.5"/>
</g>
<!-- RmqModule&#45;&gt;TestProgramModule -->
<g id="edge25" class="edge">
<title>RmqModule&#45;&gt;TestProgramModule</title>
<path fill="none" stroke="black" d="M925.68,-122.21C925.68,-127.55 925.68,-132 925.68,-132 925.68,-132 2576.03,-132 2576.03,-132 2576.03,-132 2576.03,-151.85 2576.03,-151.85"/>
<polygon fill="black" stroke="black" points="2572.53,-151.85 2576.03,-161.85 2579.53,-151.85 2572.53,-151.85"/>
</g>
<!-- ClassManagementRepository -->
<g id="node4" class="node">
<title>ClassManagementRepository</title>
<ellipse fill="#fdb462" stroke="black" cx="725" cy="-104" rx="125" ry="18"/>
<text text-anchor="middle" x="725" y="-99.8" font-family="Times,serif" font-size="14.00">ClassManagementRepository</text>
</g>
<!-- ClassManagementRepository&#45;&gt;ClassManagementModule -->
<g id="edge3" class="edge">
<title>ClassManagementRepository&#45;&gt;ClassManagementModule</title>
<path fill="none" stroke="black" d="M766,-121.25C766,-121.25 766,-151.76 766,-151.76"/>
<polygon fill="black" stroke="black" points="762.5,-151.76 766,-161.76 769.5,-151.76 762.5,-151.76"/>
</g>
<!-- ClassManagementService -->
<g id="node5" class="node">
<title>ClassManagementService</title>
<ellipse fill="#fdb462" stroke="black" cx="471" cy="-104" rx="111.15" ry="18"/>
<text text-anchor="middle" x="471" y="-99.8" font-family="Times,serif" font-size="14.00">ClassManagementService</text>
</g>
<!-- ClassManagementService&#45;&gt;ClassManagementModule -->
<g id="edge4" class="edge">
<title>ClassManagementService&#45;&gt;ClassManagementModule</title>
<path fill="none" stroke="black" d="M471,-122.01C471,-144.49 471,-180 471,-180 471,-180 674.22,-180 674.22,-180"/>
<polygon fill="black" stroke="black" points="674.22,-183.5 684.22,-180 674.22,-176.5 674.22,-183.5"/>
</g>
<!-- MeetingModule&#45;&gt;StudentManagementModule -->
<g id="edge16" class="edge">
<title>MeetingModule&#45;&gt;StudentManagementModule</title>
<path fill="none" stroke="black" d="M2148,-198.02C2148,-215.37 2148,-239 2148,-239 2148,-239 1996.79,-239 1996.79,-239"/>
<polygon fill="black" stroke="black" points="1996.79,-235.5 1986.79,-239 1996.79,-242.5 1996.79,-235.5"/>
</g>
<!-- MeetingService -->
<g id="node7" class="node">
<title>MeetingService</title>
<ellipse fill="#fdb462" stroke="black" cx="2175" cy="-104" rx="72.35" ry="18"/>
<text text-anchor="middle" x="2175" y="-99.8" font-family="Times,serif" font-size="14.00">MeetingService</text>
</g>
<!-- MeetingService&#45;&gt;MeetingModule -->
<g id="edge6" class="edge">
<title>MeetingService&#45;&gt;MeetingModule</title>
<path fill="none" stroke="black" d="M2151.96,-121.25C2151.96,-121.25 2151.96,-151.76 2151.96,-151.76"/>
<polygon fill="black" stroke="black" points="2148.46,-151.76 2151.96,-161.76 2155.46,-151.76 2148.46,-151.76"/>
</g>
<!-- ModuleManagementRepository -->
<g id="node9" class="node">
<title>ModuleManagementRepository</title>
<ellipse fill="#fdb462" stroke="black" cx="1521" cy="-104" rx="133.73" ry="18"/>
<text text-anchor="middle" x="1521" y="-99.8" font-family="Times,serif" font-size="14.00">ModuleManagementRepository</text>
</g>
<!-- ModuleManagementRepository&#45;&gt;ModuleManagementModule -->
<g id="edge9" class="edge">
<title>ModuleManagementRepository&#45;&gt;ModuleManagementModule</title>
<path fill="none" stroke="black" d="M1521,-122.01C1521,-144.49 1521,-180 1521,-180 1521,-180 1327.4,-180 1327.4,-180"/>
<polygon fill="black" stroke="black" points="1327.4,-176.5 1317.4,-180 1327.4,-183.5 1327.4,-176.5"/>
</g>
<!-- ModuleManagementService -->
<g id="node10" class="node">
<title>ModuleManagementService</title>
<ellipse fill="#fdb462" stroke="black" cx="1249" cy="-104" rx="120.39" ry="18"/>
<text text-anchor="middle" x="1249" y="-99.8" font-family="Times,serif" font-size="14.00">ModuleManagementService</text>
</g>
<!-- ModuleManagementService&#45;&gt;ModuleManagementModule -->
<g id="edge10" class="edge">
<title>ModuleManagementService&#45;&gt;ModuleManagementModule</title>
<path fill="none" stroke="black" d="M1229,-122.01C1229,-122.01 1229,-151.85 1229,-151.85"/>
<polygon fill="black" stroke="black" points="1225.5,-151.85 1229,-161.85 1232.5,-151.85 1225.5,-151.85"/>
</g>
<!-- PotentialStudentModule&#45;&gt;StudentManagementModule -->
<g id="edge17" class="edge">
<title>PotentialStudentModule&#45;&gt;StudentManagementModule</title>
<path fill="none" stroke="black" d="M2355,-198.28C2355,-219.32 2355,-251 2355,-251 2355,-251 1996.92,-251 1996.92,-251"/>
<polygon fill="black" stroke="black" points="1996.92,-247.5 1986.92,-251 1996.92,-254.5 1996.92,-247.5"/>
</g>
<!-- PotentialStudentService -->
<g id="node12" class="node">
<title>PotentialStudentService</title>
<ellipse fill="#fdb462" stroke="black" cx="2391" cy="-104" rx="103.67" ry="18"/>
<text text-anchor="middle" x="2391" y="-99.8" font-family="Times,serif" font-size="14.00">PotentialStudentService</text>
</g>
<!-- PotentialStudentService&#45;&gt;PotentialStudentModule -->
<g id="edge12" class="edge">
<title>PotentialStudentService&#45;&gt;PotentialStudentModule</title>
<path fill="none" stroke="black" d="M2359.11,-121.25C2359.11,-121.25 2359.11,-151.76 2359.11,-151.76"/>
<polygon fill="black" stroke="black" points="2355.61,-151.76 2359.11,-161.76 2362.61,-151.76 2355.61,-151.76"/>
</g>
<!-- RabbitmqService -->
<g id="node14" class="node">
<title>RabbitmqService</title>
<ellipse fill="#fdb462" stroke="black" cx="102" cy="-180" rx="78.17" ry="18"/>
<text text-anchor="middle" x="102" y="-175.8" font-family="Times,serif" font-size="14.00">RabbitmqService</text>
</g>
<!-- RabbitmqService&#45;&gt;RmqModule -->
<g id="edge14" class="edge">
<title>RabbitmqService&#45;&gt;RmqModule</title>
<path fill="none" stroke="black" d="M102,-161.79C102,-156.45 102,-152 102,-152 102,-152 882.29,-152 882.29,-152 882.29,-152 882.29,-132.15 882.29,-132.15"/>
<polygon fill="black" stroke="black" points="885.79,-132.15 882.29,-122.15 878.79,-132.15 885.79,-132.15"/>
</g>
<!-- TeacherModule&#45;&gt;StudentManagementModule -->
<g id="edge19" class="edge">
<title>TeacherModule&#45;&gt;StudentManagementModule</title>
<path fill="none" stroke="black" d="M1972.7,-198.11C1972.7,-198.11 1972.7,-216.99 1972.7,-216.99"/>
<polygon fill="black" stroke="black" points="1969.2,-216.99 1972.7,-226.99 1976.2,-216.99 1969.2,-216.99"/>
</g>
<!-- StudentManagementService -->
<g id="node17" class="node">
<title>StudentManagementService</title>
<ellipse fill="#fdb462" stroke="black" cx="1815" cy="-180" rx="119.82" ry="18"/>
<text text-anchor="middle" x="1815" y="-175.8" font-family="Times,serif" font-size="14.00">StudentManagementService</text>
</g>
<!-- StudentManagementService&#45;&gt;StudentManagementModule -->
<g id="edge20" class="edge">
<title>StudentManagementService&#45;&gt;StudentManagementModule</title>
<path fill="none" stroke="black" d="M1873.1,-196.07C1873.1,-196.07 1873.1,-216.82 1873.1,-216.82"/>
<polygon fill="black" stroke="black" points="1869.6,-216.82 1873.1,-226.82 1876.6,-216.82 1869.6,-216.82"/>
</g>
<!-- StudyProgramService -->
<g id="node18" class="node">
<title>StudyProgramService</title>
<ellipse fill="#fdb462" stroke="black" cx="3075" cy="-104" rx="95.57" ry="18"/>
<text text-anchor="middle" x="3075" y="-99.8" font-family="Times,serif" font-size="14.00">StudyProgramService</text>
</g>
<!-- StudyProgramModule -->
<g id="node19" class="node">
<title>StudyProgramModule</title>
<polygon fill="#8dd3c7" stroke="black" points="3145.43,-198 3142.43,-202 3121.43,-202 3118.43,-198 3004.57,-198 3004.57,-162 3145.43,-162 3145.43,-198"/>
<text text-anchor="middle" x="3075" y="-175.8" font-family="Times,serif" font-size="14.00">StudyProgramModule</text>
</g>
<!-- StudyProgramService&#45;&gt;StudyProgramModule -->
<g id="edge21" class="edge">
<title>StudyProgramService&#45;&gt;StudyProgramModule</title>
<path fill="none" stroke="black" d="M3075,-122.01C3075,-122.01 3075,-151.85 3075,-151.85"/>
<polygon fill="black" stroke="black" points="3071.5,-151.85 3075,-161.85 3078.5,-151.85 3071.5,-151.85"/>
</g>
<!-- TeacherService -->
<g id="node20" class="node">
<title>TeacherService</title>
<ellipse fill="#fdb462" stroke="black" cx="1992" cy="-104" rx="71.16" ry="18"/>
<text text-anchor="middle" x="1992" y="-99.8" font-family="Times,serif" font-size="14.00">TeacherService</text>
</g>
<!-- TeacherService&#45;&gt;TeacherModule -->
<g id="edge23" class="edge">
<title>TeacherService&#45;&gt;TeacherModule</title>
<path fill="none" stroke="black" d="M2028.28,-119.75C2028.28,-119.75 2028.28,-151.87 2028.28,-151.87"/>
<polygon fill="black" stroke="black" points="2024.78,-151.87 2028.28,-161.87 2031.78,-151.87 2024.78,-151.87"/>
</g>
<!-- TestProgramRepository -->
<g id="node22" class="node">
<title>TestProgramRepository</title>
<ellipse fill="#fdb462" stroke="black" cx="2836" cy="-104" rx="103.09" ry="18"/>
<text text-anchor="middle" x="2836" y="-99.8" font-family="Times,serif" font-size="14.00">TestProgramRepository</text>
</g>
<!-- TestProgramRepository&#45;&gt;TestProgramModule -->
<g id="edge26" class="edge">
<title>TestProgramRepository&#45;&gt;TestProgramModule</title>
<path fill="none" stroke="black" d="M2836,-122.01C2836,-144.49 2836,-180 2836,-180 2836,-180 2684.96,-180 2684.96,-180"/>
<polygon fill="black" stroke="black" points="2684.96,-176.5 2674.96,-180 2684.96,-183.5 2684.96,-176.5"/>
</g>
<!-- TestProgramService -->
<g id="node23" class="node">
<title>TestProgramService</title>
<ellipse fill="#fdb462" stroke="black" cx="2625" cy="-104" rx="89.74" ry="18"/>
<text text-anchor="middle" x="2625" y="-99.8" font-family="Times,serif" font-size="14.00">TestProgramService</text>
</g>
<!-- TestProgramService&#45;&gt;TestProgramModule -->
<g id="edge27" class="edge">
<title>TestProgramService&#45;&gt;TestProgramModule</title>
<path fill="none" stroke="black" d="M2641.97,-122.01C2641.97,-122.01 2641.97,-151.85 2641.97,-151.85"/>
<polygon fill="black" stroke="black" points="2638.47,-151.85 2641.97,-161.85 2645.47,-151.85 2638.47,-151.85"/>
</g>
</g>
</svg>
