<?xml version="1.0" encoding="UTF-8" standalone="no"?>
<!DOCTYPE svg PUBLIC "-//W3C//DTD SVG 1.1//EN"
 "http://www.w3.org/Graphics/SVG/1.1/DTD/svg11.dtd">
<!-- Generated by graphviz version 2.47.0 (20210316.0004)
 -->
<!-- Title: dependencies Pages: 1 -->
<svg width="3071pt" height="287pt"
 viewBox="0.00 0.00 3071.00 287.00" xmlns="http://www.w3.org/2000/svg" xmlns:xlink="http://www.w3.org/1999/xlink">
<g id="graph0" class="graph" transform="scale(1 1) rotate(0) translate(4 283)">
<title>dependencies</title>
<polygon fill="white" stroke="transparent" points="-4,4 -4,-283 3067,-283 3067,4 -4,4"/>
<text text-anchor="start" x="1510.51" y="-42.4" font-family="Times-12" font-weight="bold" font-size="14.00">Legend</text>
<polygon fill="#ffffb3" stroke="transparent" points="1297.5,-10 1297.5,-30 1317.5,-30 1317.5,-10 1297.5,-10"/>
<text text-anchor="start" x="1321.13" y="-15.4" font-family="Times-12" font-size="14.00"> &#160;Declarations</text>
<polygon fill="#8dd3c7" stroke="transparent" points="1410.5,-10 1410.5,-30 1430.5,-30 1430.5,-10 1410.5,-10"/>
<text text-anchor="start" x="1434.23" y="-15.4" font-family="Times-12" font-size="14.00"> &#160;Module</text>
<polygon fill="#80b1d3" stroke="transparent" points="1496.5,-10 1496.5,-30 1516.5,-30 1516.5,-10 1496.5,-10"/>
<text text-anchor="start" x="1520.28" y="-15.4" font-family="Times-12" font-size="14.00"> &#160;Bootstrap</text>
<polygon fill="#fdb462" stroke="transparent" points="1593.5,-10 1593.5,-30 1613.5,-30 1613.5,-10 1593.5,-10"/>
<text text-anchor="start" x="1617.17" y="-15.4" font-family="Times-12" font-size="14.00"> &#160;Providers</text>
<polygon fill="#fb8072" stroke="transparent" points="1689.5,-10 1689.5,-30 1709.5,-30 1709.5,-10 1689.5,-10"/>
<text text-anchor="start" x="1713.23" y="-15.4" font-family="Times-12" font-size="14.00"> &#160;Exports</text>
<g id="clust1" class="cluster">
<title>cluster_ClassManagementModule</title>
<polygon fill="none" stroke="black" stroke-dasharray="1,5" points="344,-70 344,-206 1105,-206 1105,-70 344,-70"/>
</g>
<g id="clust3" class="cluster">
<title>cluster_ClassManagementModule_imports</title>
<polygon fill="none" stroke="black" points="866,-78 866,-130 1097,-130 1097,-78 866,-78"/>
</g>
<g id="clust6" class="cluster">
<title>cluster_ClassManagementModule_providers</title>
<polygon fill="none" stroke="black" points="352,-78 352,-130 858,-130 858,-78 352,-78"/>
</g>
<g id="clust13" class="cluster">
<title>cluster_ModuleManagementModule</title>
<polygon fill="none" stroke="black" stroke-dasharray="1,5" points="1113,-70 1113,-206 1671,-206 1671,-70 1113,-70"/>
</g>
<g id="clust18" class="cluster">
<title>cluster_ModuleManagementModule_providers</title>
<polygon fill="none" stroke="black" points="1121,-78 1121,-130 1663,-130 1663,-78 1121,-78"/>
</g>
<g id="clust19" class="cluster">
<title>cluster_RmqModule</title>
<polygon fill="none" stroke="black" stroke-dasharray="1,5" points="8,-146 8,-214 336,-214 336,-146 8,-146"/>
</g>
<g id="clust22" class="cluster">
<title>cluster_RmqModule_exports</title>
<polygon fill="none" stroke="black" points="196,-154 196,-206 328,-206 328,-154 196,-154"/>
</g>
<g id="clust24" class="cluster">
<title>cluster_RmqModule_providers</title>
<polygon fill="none" stroke="black" points="16,-154 16,-206 188,-206 188,-154 16,-154"/>
</g>
<g id="clust25" class="cluster">
<title>cluster_StudentManagementModule</title>
<polygon fill="none" stroke="black" stroke-dasharray="1,5" points="1679,-146 1679,-271 2363,-271 2363,-146 1679,-146"/>
</g>
<g id="clust27" class="cluster">
<title>cluster_StudentManagementModule_imports</title>
<polygon fill="none" stroke="black" points="2235,-154 2235,-206 2355,-206 2355,-154 2235,-154"/>
</g>
<g id="clust30" class="cluster">
<title>cluster_StudentManagementModule_providers</title>
<polygon fill="none" stroke="black" points="1687,-154 1687,-206 2227,-206 2227,-154 1687,-154"/>
</g>
<g id="clust31" class="cluster">
<title>cluster_StudyProgramModule</title>
<polygon fill="none" stroke="black" stroke-dasharray="1,5" points="2831,-70 2831,-206 3055,-206 3055,-70 2831,-70"/>
</g>
<g id="clust36" class="cluster">
<title>cluster_StudyProgramModule_providers</title>
<polygon fill="none" stroke="black" points="2839,-78 2839,-130 3047,-130 3047,-78 2839,-78"/>
</g>
<g id="clust37" class="cluster">
<title>cluster_TeacherModule</title>
<polygon fill="none" stroke="black" stroke-dasharray="1,5" points="2017,-70 2017,-138 2379,-138 2379,-70 2017,-70"/>
</g>
<g id="clust42" class="cluster">
<title>cluster_TeacherModule_providers</title>
<polygon fill="none" stroke="black" points="2025,-78 2025,-130 2371,-130 2371,-78 2025,-78"/>
</g>
<g id="clust43" class="cluster">
<title>cluster_TestProgramModule</title>
<polygon fill="none" stroke="black" stroke-dasharray="1,5" points="2387,-70 2387,-206 2823,-206 2823,-70 2387,-70"/>
</g>
<g id="clust48" class="cluster">
<title>cluster_TestProgramModule_providers</title>
<polygon fill="none" stroke="black" points="2395,-78 2395,-130 2815,-130 2815,-78 2395,-78"/>
</g>
<!-- DatabaseModule -->
<g id="node1" class="node">
<title>DatabaseModule</title>
<polygon fill="#8dd3c7" stroke="black" points="1089.35,-122 1086.35,-126 1065.35,-126 1062.35,-122 978.65,-122 978.65,-86 1089.35,-86 1089.35,-122"/>
<text text-anchor="middle" x="1034" y="-99.8" font-family="Times,serif" font-size="14.00">DatabaseModule</text>
</g>
<!-- ClassManagementModule -->
<g id="node3" class="node">
<title>ClassManagementModule</title>
<polygon fill="#8dd3c7" stroke="black" points="902.47,-198 899.47,-202 878.47,-202 875.47,-198 739.53,-198 739.53,-162 902.47,-162 902.47,-198"/>
<text text-anchor="middle" x="821" y="-175.8" font-family="Times,serif" font-size="14.00">ClassManagementModule</text>
</g>
<!-- DatabaseModule&#45;&gt;ClassManagementModule -->
<g id="edge1" class="edge">
<title>DatabaseModule&#45;&gt;ClassManagementModule</title>
<path fill="none" stroke="black" d="M1022.91,-122.31C1022.91,-142.15 1022.91,-171 1022.91,-171 1022.91,-171 912.54,-171 912.54,-171"/>
<polygon fill="black" stroke="black" points="912.54,-167.5 902.54,-171 912.54,-174.5 912.54,-167.5"/>
</g>
<!-- ModuleManagementModule -->
<g id="node6" class="node">
<title>ModuleManagementModule</title>
<polygon fill="#8dd3c7" stroke="black" points="1317.18,-198 1314.18,-202 1293.18,-202 1290.18,-198 1140.82,-198 1140.82,-162 1317.18,-162 1317.18,-198"/>
<text text-anchor="middle" x="1229" y="-175.8" font-family="Times,serif" font-size="14.00">ModuleManagementModule</text>
</g>
<!-- DatabaseModule&#45;&gt;ModuleManagementModule -->
<g id="edge5" class="edge">
<title>DatabaseModule&#45;&gt;ModuleManagementModule</title>
<path fill="none" stroke="black" d="M1067.25,-122.01C1067.25,-144.49 1067.25,-180 1067.25,-180 1067.25,-180 1130.56,-180 1130.56,-180"/>
<polygon fill="black" stroke="black" points="1130.56,-183.5 1140.56,-180 1130.56,-176.5 1130.56,-183.5"/>
</g>
<!-- StudentManagementModule -->
<g id="node12" class="node">
<title>StudentManagementModule</title>
<polygon fill="#8dd3c7" stroke="black" points="1902.91,-263 1899.91,-267 1878.91,-267 1875.91,-263 1727.09,-263 1727.09,-227 1902.91,-227 1902.91,-263"/>
<text text-anchor="middle" x="1815" y="-240.8" font-family="Times,serif" font-size="14.00">StudentManagementModule</text>
</g>
<!-- DatabaseModule&#45;&gt;StudentManagementModule -->
<g id="edge11" class="edge">
<title>DatabaseModule&#45;&gt;StudentManagementModule</title>
<path fill="none" stroke="black" d="M1045.09,-122.21C1045.09,-159.06 1045.09,-239 1045.09,-239 1045.09,-239 1717.06,-239 1717.06,-239"/>
<polygon fill="black" stroke="black" points="1717.06,-242.5 1727.06,-239 1717.06,-235.5 1717.06,-242.5"/>
</g>
<!-- TestProgramModule -->
<g id="node19" class="node">
<title>TestProgramModule</title>
<polygon fill="#8dd3c7" stroke="black" points="2542.86,-198 2539.86,-202 2518.86,-202 2515.86,-198 2411.14,-198 2411.14,-162 2542.86,-162 2542.86,-198"/>
<text text-anchor="middle" x="2477" y="-175.8" font-family="Times,serif" font-size="14.00">TestProgramModule</text>
</g>
<!-- DatabaseModule&#45;&gt;TestProgramModule -->
<g id="edge20" class="edge">
<title>DatabaseModule&#45;&gt;TestProgramModule</title>
<path fill="none" stroke="black" d="M1000.75,-122.19C1000.75,-125.54 1000.75,-128 1000.75,-128 1000.75,-128 2477,-128 2477,-128 2477,-128 2477,-151.81 2477,-151.81"/>
<polygon fill="black" stroke="black" points="2473.5,-151.81 2477,-161.81 2480.5,-151.81 2473.5,-151.81"/>
</g>
<!-- RmqModule -->
<g id="node2" class="node">
<title>RmqModule</title>
<polygon fill="#8dd3c7" stroke="black" points="960.28,-122 957.28,-126 936.28,-126 933.28,-122 873.72,-122 873.72,-86 960.28,-86 960.28,-122"/>
<text text-anchor="middle" x="917" y="-99.8" font-family="Times,serif" font-size="14.00">RmqModule</text>
</g>
<!-- RmqModule&#45;&gt;ClassManagementModule -->
<g id="edge2" class="edge">
<title>RmqModule&#45;&gt;ClassManagementModule</title>
<path fill="none" stroke="black" d="M895.26,-122.01C895.26,-122.01 895.26,-151.85 895.26,-151.85"/>
<polygon fill="black" stroke="black" points="891.76,-151.85 895.26,-161.85 898.76,-151.85 891.76,-151.85"/>
</g>
<!-- RmqModule&#45;&gt;ModuleManagementModule -->
<g id="edge6" class="edge">
<title>RmqModule&#45;&gt;ModuleManagementModule</title>
<path fill="none" stroke="black" d="M948.81,-122.03C948.81,-146.98 948.81,-189 948.81,-189 948.81,-189 1130.73,-189 1130.73,-189"/>
<polygon fill="black" stroke="black" points="1130.73,-192.5 1140.73,-189 1130.73,-185.5 1130.73,-192.5"/>
</g>
<!-- RabbitmqService  -->
<g id="node9" class="node">
<title>RabbitmqService </title>
<polygon fill="#fb8072" stroke="black" points="320.2,-198 203.8,-198 203.8,-162 320.2,-162 320.2,-198"/>
<text text-anchor="middle" x="262" y="-175.8" font-family="Times,serif" font-size="14.00">RabbitmqService </text>
</g>
<!-- RmqModule&#45;&gt;RabbitmqService  -->
<g id="edge9" class="edge">
<title>RmqModule&#45;&gt;RabbitmqService </title>
<path fill="none" stroke="black" stroke-dasharray="5,2" d="M888.05,-122.1C888.05,-133.09 888.05,-145 888.05,-145 888.05,-145 262,-145 262,-145 262,-145 262,-151.68 262,-151.68"/>
<polygon fill="black" stroke="black" points="258.5,-151.68 262,-161.68 265.5,-151.68 258.5,-151.68"/>
</g>
<!-- TeacherModule -->
<g id="node11" class="node">
<title>TeacherModule</title>
<polygon fill="#8dd3c7" stroke="black" points="2347.12,-198 2344.12,-202 2323.12,-202 2320.12,-198 2242.88,-198 2242.88,-162 2347.12,-162 2347.12,-198"/>
<text text-anchor="middle" x="2295" y="-175.8" font-family="Times,serif" font-size="14.00">TeacherModule</text>
</g>
<!-- RmqModule&#45;&gt;TeacherModule -->
<g id="edge17" class="edge">
<title>RmqModule&#45;&gt;TeacherModule</title>
<path fill="none" stroke="black" d="M914.06,-122.24C914.06,-137.57 914.06,-157 914.06,-157 914.06,-157 2268.84,-157 2268.84,-157 2268.84,-157 2268.84,-157.49 2268.84,-157.49"/>
<polygon fill="black" stroke="black" points="2265.34,-151.88 2268.84,-161.88 2272.34,-151.88 2265.34,-151.88"/>
</g>
<!-- RmqModule&#45;&gt;StudentManagementModule -->
<g id="edge12" class="edge">
<title>RmqModule&#45;&gt;StudentManagementModule</title>
<path fill="none" stroke="black" d="M937.23,-122.03C937.23,-161.28 937.23,-251 937.23,-251 937.23,-251 1717.22,-251 1717.22,-251"/>
<polygon fill="black" stroke="black" points="1717.22,-254.5 1727.22,-251 1717.22,-247.5 1717.22,-254.5"/>
</g>
<!-- RmqModule&#45;&gt;TestProgramModule -->
<g id="edge21" class="edge">
<title>RmqModule&#45;&gt;TestProgramModule</title>
<path fill="none" stroke="black" d="M925.64,-122.14C925.64,-128.46 925.64,-134 925.64,-134 925.64,-134 2444.03,-134 2444.03,-134 2444.03,-134 2444.03,-151.82 2444.03,-151.82"/>
<polygon fill="black" stroke="black" points="2440.53,-151.82 2444.03,-161.82 2447.53,-151.82 2440.53,-151.82"/>
</g>
<!-- ClassManagementRepository -->
<g id="node4" class="node">
<title>ClassManagementRepository</title>
<ellipse fill="#fdb462" stroke="black" cx="725" cy="-104" rx="125" ry="18"/>
<text text-anchor="middle" x="725" y="-99.8" font-family="Times,serif" font-size="14.00">ClassManagementRepository</text>
</g>
<!-- ClassManagementRepository&#45;&gt;ClassManagementModule -->
<g id="edge3" class="edge">
<title>ClassManagementRepository&#45;&gt;ClassManagementModule</title>
<path fill="none" stroke="black" d="M794.63,-119.02C794.63,-119.02 794.63,-151.8 794.63,-151.8"/>
<polygon fill="black" stroke="black" points="791.13,-151.8 794.63,-161.8 798.13,-151.8 791.13,-151.8"/>
</g>
<!-- ClassManagementService -->
<g id="node5" class="node">
<title>ClassManagementService</title>
<ellipse fill="#fdb462" stroke="black" cx="471" cy="-104" rx="111.15" ry="18"/>
<text text-anchor="middle" x="471" y="-99.8" font-family="Times,serif" font-size="14.00">ClassManagementService</text>
</g>
<!-- ClassManagementService&#45;&gt;ClassManagementModule -->
<g id="edge4" class="edge">
<title>ClassManagementService&#45;&gt;ClassManagementModule</title>
<path fill="none" stroke="black" d="M471,-122.01C471,-144.49 471,-180 471,-180 471,-180 729.38,-180 729.38,-180"/>
<polygon fill="black" stroke="black" points="729.38,-183.5 739.38,-180 729.38,-176.5 729.38,-183.5"/>
</g>
<!-- ModuleManagementRepository -->
<g id="node7" class="node">
<title>ModuleManagementRepository</title>
<ellipse fill="#fdb462" stroke="black" cx="1521" cy="-104" rx="133.73" ry="18"/>
<text text-anchor="middle" x="1521" y="-99.8" font-family="Times,serif" font-size="14.00">ModuleManagementRepository</text>
</g>
<!-- ModuleManagementRepository&#45;&gt;ModuleManagementModule -->
<g id="edge7" class="edge">
<title>ModuleManagementRepository&#45;&gt;ModuleManagementModule</title>
<path fill="none" stroke="black" d="M1521,-122.01C1521,-144.49 1521,-180 1521,-180 1521,-180 1327.4,-180 1327.4,-180"/>
<polygon fill="black" stroke="black" points="1327.4,-176.5 1317.4,-180 1327.4,-183.5 1327.4,-176.5"/>
</g>
<!-- ModuleManagementService -->
<g id="node8" class="node">
<title>ModuleManagementService</title>
<ellipse fill="#fdb462" stroke="black" cx="1249" cy="-104" rx="120.39" ry="18"/>
<text text-anchor="middle" x="1249" y="-99.8" font-family="Times,serif" font-size="14.00">ModuleManagementService</text>
</g>
<!-- ModuleManagementService&#45;&gt;ModuleManagementModule -->
<g id="edge8" class="edge">
<title>ModuleManagementService&#45;&gt;ModuleManagementModule</title>
<path fill="none" stroke="black" d="M1229,-122.01C1229,-122.01 1229,-151.85 1229,-151.85"/>
<polygon fill="black" stroke="black" points="1225.5,-151.85 1229,-161.85 1232.5,-151.85 1225.5,-151.85"/>
</g>
<!-- RabbitmqService -->
<g id="node10" class="node">
<title>RabbitmqService</title>
<ellipse fill="#fdb462" stroke="black" cx="102" cy="-180" rx="78.17" ry="18"/>
<text text-anchor="middle" x="102" y="-175.8" font-family="Times,serif" font-size="14.00">RabbitmqService</text>
</g>
<!-- RabbitmqService&#45;&gt;RmqModule -->
<g id="edge10" class="edge">
<title>RabbitmqService&#45;&gt;RmqModule</title>
<path fill="none" stroke="black" d="M102,-161.87C102,-151.29 102,-140 102,-140 102,-140 880.83,-140 880.83,-140 880.83,-140 880.83,-132.42 880.83,-132.42"/>
<polygon fill="black" stroke="black" points="884.33,-132.42 880.83,-122.42 877.33,-132.42 884.33,-132.42"/>
</g>
<!-- TeacherModule&#45;&gt;StudentManagementModule -->
<g id="edge13" class="edge">
<title>TeacherModule&#45;&gt;StudentManagementModule</title>
<path fill="none" stroke="black" d="M2295,-198.28C2295,-219.32 2295,-251 2295,-251 2295,-251 1912.76,-251 1912.76,-251"/>
<polygon fill="black" stroke="black" points="1912.76,-247.5 1902.76,-251 1912.76,-254.5 1912.76,-247.5"/>
</g>
<!-- StudentManagementRepository -->
<g id="node13" class="node">
<title>StudentManagementRepository</title>
<ellipse fill="#fdb462" stroke="black" cx="2086" cy="-180" rx="133.17" ry="18"/>
<text text-anchor="middle" x="2086" y="-175.8" font-family="Times,serif" font-size="14.00">StudentManagementRepository</text>
</g>
<!-- StudentManagementRepository&#45;&gt;StudentManagementModule -->
<g id="edge14" class="edge">
<title>StudentManagementRepository&#45;&gt;StudentManagementModule</title>
<path fill="none" stroke="black" d="M2086,-198.02C2086,-215.37 2086,-239 2086,-239 2086,-239 1912.99,-239 1912.99,-239"/>
<polygon fill="black" stroke="black" points="1912.99,-235.5 1902.99,-239 1912.99,-242.5 1912.99,-235.5"/>
</g>
<!-- StudentManagementService -->
<g id="node14" class="node">
<title>StudentManagementService</title>
<ellipse fill="#fdb462" stroke="black" cx="1815" cy="-180" rx="119.82" ry="18"/>
<text text-anchor="middle" x="1815" y="-175.8" font-family="Times,serif" font-size="14.00">StudentManagementService</text>
</g>
<!-- StudentManagementService&#45;&gt;StudentManagementModule -->
<g id="edge15" class="edge">
<title>StudentManagementService&#45;&gt;StudentManagementModule</title>
<path fill="none" stroke="black" d="M1815,-198.11C1815,-198.11 1815,-216.99 1815,-216.99"/>
<polygon fill="black" stroke="black" points="1811.5,-216.99 1815,-226.99 1818.5,-216.99 1811.5,-216.99"/>
</g>
<!-- StudyProgramService -->
<g id="node15" class="node">
<title>StudyProgramService</title>
<ellipse fill="#fdb462" stroke="black" cx="2943" cy="-104" rx="95.57" ry="18"/>
<text text-anchor="middle" x="2943" y="-99.8" font-family="Times,serif" font-size="14.00">StudyProgramService</text>
</g>
<!-- StudyProgramModule -->
<g id="node16" class="node">
<title>StudyProgramModule</title>
<polygon fill="#8dd3c7" stroke="black" points="3013.43,-198 3010.43,-202 2989.43,-202 2986.43,-198 2872.57,-198 2872.57,-162 3013.43,-162 3013.43,-198"/>
<text text-anchor="middle" x="2943" y="-175.8" font-family="Times,serif" font-size="14.00">StudyProgramModule</text>
</g>
<!-- StudyProgramService&#45;&gt;StudyProgramModule -->
<g id="edge16" class="edge">
<title>StudyProgramService&#45;&gt;StudyProgramModule</title>
<path fill="none" stroke="black" d="M2943,-122.01C2943,-122.01 2943,-151.85 2943,-151.85"/>
<polygon fill="black" stroke="black" points="2939.5,-151.85 2943,-161.85 2946.5,-151.85 2939.5,-151.85"/>
</g>
<!-- TeacherRepository -->
<g id="node17" class="node">
<title>TeacherRepository</title>
<ellipse fill="#fdb462" stroke="black" cx="2278" cy="-104" rx="84.51" ry="18"/>
<text text-anchor="middle" x="2278" y="-99.8" font-family="Times,serif" font-size="14.00">TeacherRepository</text>
</g>
<!-- TeacherRepository&#45;&gt;TeacherModule -->
<g id="edge18" class="edge">
<title>TeacherRepository&#45;&gt;TeacherModule</title>
<path fill="none" stroke="black" d="M2321.16,-119.75C2321.16,-119.75 2321.16,-151.87 2321.16,-151.87"/>
<polygon fill="black" stroke="black" points="2317.66,-151.87 2321.16,-161.87 2324.66,-151.87 2317.66,-151.87"/>
</g>
<!-- TeacherService -->
<g id="node18" class="node">
<title>TeacherService</title>
<ellipse fill="#fdb462" stroke="black" cx="2104" cy="-104" rx="71.16" ry="18"/>
<text text-anchor="middle" x="2104" y="-99.8" font-family="Times,serif" font-size="14.00">TeacherService</text>
</g>
<!-- TeacherService&#45;&gt;TeacherModule -->
<g id="edge19" class="edge">
<title>TeacherService&#45;&gt;TeacherModule</title>
<path fill="none" stroke="black" d="M2104,-122.04C2104,-135.29 2104,-151 2104,-151 2104,-151 2295,-151 2295,-151 2295,-151 2295,-152.08 2295,-152.08"/>
<polygon fill="black" stroke="black" points="2291.5,-151.8 2295,-161.8 2298.5,-151.8 2291.5,-151.8"/>
</g>
<!-- TestProgramRepository -->
<g id="node20" class="node">
<title>TestProgramRepository</title>
<ellipse fill="#fdb462" stroke="black" cx="2704" cy="-104" rx="103.09" ry="18"/>
<text text-anchor="middle" x="2704" y="-99.8" font-family="Times,serif" font-size="14.00">TestProgramRepository</text>
</g>
<!-- TestProgramRepository&#45;&gt;TestProgramModule -->
<g id="edge22" class="edge">
<title>TestProgramRepository&#45;&gt;TestProgramModule</title>
<path fill="none" stroke="black" d="M2704,-122.01C2704,-144.49 2704,-180 2704,-180 2704,-180 2552.96,-180 2552.96,-180"/>
<polygon fill="black" stroke="black" points="2552.96,-176.5 2542.96,-180 2552.96,-183.5 2552.96,-176.5"/>
</g>
<!-- TestProgramService -->
<g id="node21" class="node">
<title>TestProgramService</title>
<ellipse fill="#fdb462" stroke="black" cx="2493" cy="-104" rx="89.74" ry="18"/>
<text text-anchor="middle" x="2493" y="-99.8" font-family="Times,serif" font-size="14.00">TestProgramService</text>
</g>
<!-- TestProgramService&#45;&gt;TestProgramModule -->
<g id="edge23" class="edge">
<title>TestProgramService&#45;&gt;TestProgramModule</title>
<path fill="none" stroke="black" d="M2509.97,-122.01C2509.97,-122.01 2509.97,-151.85 2509.97,-151.85"/>
<polygon fill="black" stroke="black" points="2506.47,-151.85 2509.97,-161.85 2513.47,-151.85 2506.47,-151.85"/>
</g>
</g>
</svg>
